<mxfile host="Electron" agent="Mozilla/5.0 (Windows NT 10.0; Win64; x64) AppleWebKit/537.36 (KHTML, like Gecko) draw.io/26.0.4 Chrome/128.0.6613.186 Electron/32.2.5 Safari/537.36" version="26.0.4" pages="9">
  <diagram name="Diagrama nivel 1" id="kEMqT2u1Xzf56kCI-ZXV">
    <mxGraphModel dx="880" dy="532" grid="0" gridSize="10" guides="1" tooltips="1" connect="1" arrows="1" fold="1" page="1" pageScale="1" pageWidth="827" pageHeight="1169" math="0" shadow="0">
      <root>
        <mxCell id="0" />
        <mxCell id="1" parent="0" />
        <mxCell id="lOCtRu7McvlKcl7_cH1q-1" value="" style="image;sketch=0;aspect=fixed;html=1;points=[];align=center;fontSize=12;image=img/lib/mscae/Application_Gateway.svg;" parent="1" vertex="1">
          <mxGeometry x="55" y="299" width="110" height="110" as="geometry" />
        </mxCell>
        <mxCell id="lOCtRu7McvlKcl7_cH1q-15" value="" style="group" parent="1" vertex="1" connectable="0">
          <mxGeometry x="350" y="317" width="135" height="104" as="geometry" />
        </mxCell>
        <mxCell id="lOCtRu7McvlKcl7_cH1q-2" value="" style="image;sketch=0;aspect=fixed;html=1;points=[];align=center;fontSize=12;image=img/lib/mscae/Storage_sync_service.svg;" parent="lOCtRu7McvlKcl7_cH1q-15" vertex="1">
          <mxGeometry x="23.5" width="81" height="81" as="geometry" />
        </mxCell>
        <mxCell id="lOCtRu7McvlKcl7_cH1q-7" value="CLIENTE_SERVICE" style="text;html=1;align=center;verticalAlign=middle;resizable=0;points=[];autosize=1;strokeColor=none;fillColor=none;" parent="lOCtRu7McvlKcl7_cH1q-15" vertex="1">
          <mxGeometry x="7" y="78" width="128" height="26" as="geometry" />
        </mxCell>
        <mxCell id="lOCtRu7McvlKcl7_cH1q-19" value="" style="group" parent="1" vertex="1" connectable="0">
          <mxGeometry x="353" y="584" width="151" height="104" as="geometry" />
        </mxCell>
        <mxCell id="lOCtRu7McvlKcl7_cH1q-20" value="" style="image;sketch=0;aspect=fixed;html=1;points=[];align=center;fontSize=12;image=img/lib/mscae/Storage_sync_service.svg;" parent="lOCtRu7McvlKcl7_cH1q-19" vertex="1">
          <mxGeometry x="23.5" width="81" height="81" as="geometry" />
        </mxCell>
        <mxCell id="lOCtRu7McvlKcl7_cH1q-21" value="ACOUNT_SERVICE" style="text;html=1;align=center;verticalAlign=middle;resizable=0;points=[];autosize=1;strokeColor=none;fillColor=none;" parent="lOCtRu7McvlKcl7_cH1q-19" vertex="1">
          <mxGeometry y="78" width="128" height="26" as="geometry" />
        </mxCell>
        <mxCell id="lOCtRu7McvlKcl7_cH1q-22" value="" style="group" parent="1" vertex="1" connectable="0">
          <mxGeometry x="338" y="27" width="151" height="104" as="geometry" />
        </mxCell>
        <mxCell id="lOCtRu7McvlKcl7_cH1q-23" value="" style="image;sketch=0;aspect=fixed;html=1;points=[];align=center;fontSize=12;image=img/lib/mscae/Storage_sync_service.svg;" parent="lOCtRu7McvlKcl7_cH1q-22" vertex="1">
          <mxGeometry x="23.5" width="81" height="81" as="geometry" />
        </mxCell>
        <mxCell id="lOCtRu7McvlKcl7_cH1q-24" value="TRANSACAO_SERVICE" style="text;html=1;align=center;verticalAlign=middle;resizable=0;points=[];autosize=1;strokeColor=none;fillColor=none;" parent="lOCtRu7McvlKcl7_cH1q-22" vertex="1">
          <mxGeometry x="-12" y="78" width="152" height="26" as="geometry" />
        </mxCell>
        <mxCell id="lOCtRu7McvlKcl7_cH1q-52" value="" style="group" parent="1" vertex="1" connectable="0">
          <mxGeometry x="544" y="744" width="92" height="96" as="geometry" />
        </mxCell>
        <mxCell id="lOCtRu7McvlKcl7_cH1q-50" value="" style="image;sketch=0;aspect=fixed;html=1;points=[];align=center;fontSize=12;image=img/lib/mscae/Azure_Database_for_PostgreSQL_servers.svg;" parent="lOCtRu7McvlKcl7_cH1q-52" vertex="1">
          <mxGeometry x="16" width="56.24" height="74" as="geometry" />
        </mxCell>
        <mxCell id="lOCtRu7McvlKcl7_cH1q-51" value="DB_CLIENTE" style="text;html=1;align=center;verticalAlign=middle;resizable=0;points=[];autosize=1;strokeColor=none;fillColor=none;" parent="lOCtRu7McvlKcl7_cH1q-52" vertex="1">
          <mxGeometry y="70" width="92" height="26" as="geometry" />
        </mxCell>
        <mxCell id="lOCtRu7McvlKcl7_cH1q-53" value="" style="group" parent="1" vertex="1" connectable="0">
          <mxGeometry x="693" y="749" width="104" height="96" as="geometry" />
        </mxCell>
        <mxCell id="lOCtRu7McvlKcl7_cH1q-54" value="" style="image;sketch=0;aspect=fixed;html=1;points=[];align=center;fontSize=12;image=img/lib/mscae/Azure_Database_for_PostgreSQL_servers.svg;" parent="lOCtRu7McvlKcl7_cH1q-53" vertex="1">
          <mxGeometry x="16" width="56.24" height="74" as="geometry" />
        </mxCell>
        <mxCell id="lOCtRu7McvlKcl7_cH1q-55" value="DB_BANCOFAKE" style="text;html=1;align=center;verticalAlign=middle;resizable=0;points=[];autosize=1;strokeColor=none;fillColor=none;" parent="lOCtRu7McvlKcl7_cH1q-53" vertex="1">
          <mxGeometry x="-11" y="70" width="115" height="26" as="geometry" />
        </mxCell>
        <mxCell id="9dpK1fQL-XPzfSK7kjcw-1" value="&lt;font style=&quot;font-size: 25px;&quot;&gt;NIVEL 1&lt;/font&gt;" style="text;html=1;whiteSpace=wrap;overflow=hidden;rounded=0;" parent="1" vertex="1">
          <mxGeometry x="20" y="16" width="111" height="44" as="geometry" />
        </mxCell>
        <mxCell id="9dpK1fQL-XPzfSK7kjcw-4" value="" style="endArrow=classic;startArrow=classic;html=1;rounded=0;entryX=-0.027;entryY=0.466;entryDx=0;entryDy=0;entryPerimeter=0;exitX=1;exitY=0.509;exitDx=0;exitDy=0;exitPerimeter=0;" parent="1" source="lOCtRu7McvlKcl7_cH1q-1" target="lOCtRu7McvlKcl7_cH1q-23" edge="1">
          <mxGeometry width="50" height="50" relative="1" as="geometry">
            <mxPoint x="145" y="266" as="sourcePoint" />
            <mxPoint x="195" y="216" as="targetPoint" />
            <Array as="points">
              <mxPoint x="246" y="355" />
              <mxPoint x="246" y="67" />
            </Array>
          </mxGeometry>
        </mxCell>
        <mxCell id="9dpK1fQL-XPzfSK7kjcw-6" value="" style="endArrow=classic;html=1;rounded=0;entryX=0.02;entryY=0.445;entryDx=0;entryDy=0;entryPerimeter=0;" parent="1" target="lOCtRu7McvlKcl7_cH1q-20" edge="1">
          <mxGeometry width="50" height="50" relative="1" as="geometry">
            <mxPoint x="247" y="316" as="sourcePoint" />
            <mxPoint x="302" y="526" as="targetPoint" />
            <Array as="points">
              <mxPoint x="245" y="620" />
            </Array>
          </mxGeometry>
        </mxCell>
        <mxCell id="9dpK1fQL-XPzfSK7kjcw-7" value="" style="endArrow=classic;html=1;rounded=0;entryX=-0.008;entryY=0.448;entryDx=0;entryDy=0;entryPerimeter=0;" parent="1" target="lOCtRu7McvlKcl7_cH1q-2" edge="1">
          <mxGeometry width="50" height="50" relative="1" as="geometry">
            <mxPoint x="239" y="355" as="sourcePoint" />
            <mxPoint x="320" y="392" as="targetPoint" />
          </mxGeometry>
        </mxCell>
        <mxCell id="9dpK1fQL-XPzfSK7kjcw-9" value="" style="endArrow=classic;startArrow=classic;html=1;rounded=0;exitX=0.591;exitY=1.122;exitDx=0;exitDy=0;exitPerimeter=0;entryX=0.543;entryY=-0.025;entryDx=0;entryDy=0;entryPerimeter=0;" parent="1" source="lOCtRu7McvlKcl7_cH1q-24" target="lOCtRu7McvlKcl7_cH1q-2" edge="1">
          <mxGeometry width="50" height="50" relative="1" as="geometry">
            <mxPoint x="485" y="259" as="sourcePoint" />
            <mxPoint x="722" y="255" as="targetPoint" />
          </mxGeometry>
        </mxCell>
        <mxCell id="9dpK1fQL-XPzfSK7kjcw-10" value="" style="endArrow=classic;startArrow=classic;html=1;rounded=0;exitX=0.544;exitY=1.154;exitDx=0;exitDy=0;exitPerimeter=0;entryX=0.619;entryY=0.033;entryDx=0;entryDy=0;entryPerimeter=0;" parent="1" source="lOCtRu7McvlKcl7_cH1q-7" target="lOCtRu7McvlKcl7_cH1q-20" edge="1">
          <mxGeometry width="50" height="50" relative="1" as="geometry">
            <mxPoint x="547" y="483" as="sourcePoint" />
            <mxPoint x="548" y="664" as="targetPoint" />
          </mxGeometry>
        </mxCell>
        <mxCell id="9dpK1fQL-XPzfSK7kjcw-11" value="" style="endArrow=classic;html=1;rounded=0;entryX=0.979;entryY=0.383;entryDx=0;entryDy=0;entryPerimeter=0;" parent="1" target="lOCtRu7McvlKcl7_cH1q-20" edge="1">
          <mxGeometry width="50" height="50" relative="1" as="geometry">
            <mxPoint x="418" y="197" as="sourcePoint" />
            <mxPoint x="595" y="465" as="targetPoint" />
            <Array as="points">
              <mxPoint x="487" y="197" />
              <mxPoint x="490" y="412" />
              <mxPoint x="492" y="615" />
            </Array>
          </mxGeometry>
        </mxCell>
        <mxCell id="9dpK1fQL-XPzfSK7kjcw-13" value="Request" style="text;html=1;align=center;verticalAlign=middle;resizable=0;points=[];autosize=1;strokeColor=none;fillColor=none;" parent="1" vertex="1">
          <mxGeometry x="315" y="597" width="63" height="26" as="geometry" />
        </mxCell>
        <mxCell id="9dpK1fQL-XPzfSK7kjcw-14" value="Request" style="text;html=1;align=center;verticalAlign=middle;resizable=0;points=[];autosize=1;strokeColor=none;fillColor=none;" parent="1" vertex="1">
          <mxGeometry x="297" y="42" width="63" height="26" as="geometry" />
        </mxCell>
        <mxCell id="9dpK1fQL-XPzfSK7kjcw-16" value="Request" style="text;html=1;align=center;verticalAlign=middle;resizable=0;points=[];autosize=1;strokeColor=none;fillColor=none;" parent="1" vertex="1">
          <mxGeometry x="453" y="613" width="63" height="26" as="geometry" />
        </mxCell>
        <mxCell id="9dpK1fQL-XPzfSK7kjcw-17" value="Request" style="text;html=1;align=center;verticalAlign=middle;resizable=0;points=[];autosize=1;strokeColor=none;fillColor=none;" parent="1" vertex="1">
          <mxGeometry x="366" y="558" width="63" height="26" as="geometry" />
        </mxCell>
        <mxCell id="9dpK1fQL-XPzfSK7kjcw-18" value="Request" style="text;html=1;align=center;verticalAlign=middle;resizable=0;points=[];autosize=1;strokeColor=none;fillColor=none;" parent="1" vertex="1">
          <mxGeometry x="310" y="330" width="63" height="26" as="geometry" />
        </mxCell>
        <mxCell id="9dpK1fQL-XPzfSK7kjcw-19" value="Request" style="text;html=1;align=center;verticalAlign=middle;resizable=0;points=[];autosize=1;strokeColor=none;fillColor=none;" parent="1" vertex="1">
          <mxGeometry x="356" y="287" width="63" height="26" as="geometry" />
        </mxCell>
        <mxCell id="9dpK1fQL-XPzfSK7kjcw-26" value="Response" style="text;html=1;align=center;verticalAlign=middle;resizable=0;points=[];autosize=1;strokeColor=none;fillColor=none;" parent="1" vertex="1">
          <mxGeometry x="161" y="330" width="72" height="26" as="geometry" />
        </mxCell>
        <mxCell id="9dpK1fQL-XPzfSK7kjcw-27" value="Response" style="text;html=1;align=center;verticalAlign=middle;resizable=0;points=[];autosize=1;strokeColor=none;fillColor=none;" parent="1" vertex="1">
          <mxGeometry x="357" y="421" width="72" height="26" as="geometry" />
        </mxCell>
        <mxCell id="9dpK1fQL-XPzfSK7kjcw-28" value="Response" style="text;html=1;align=center;verticalAlign=middle;resizable=0;points=[];autosize=1;strokeColor=none;fillColor=none;" parent="1" vertex="1">
          <mxGeometry x="348" y="136" width="72" height="26" as="geometry" />
        </mxCell>
        <mxCell id="9dpK1fQL-XPzfSK7kjcw-29" value="" style="endArrow=classic;startArrow=classic;html=1;rounded=0;exitX=1.006;exitY=0.407;exitDx=0;exitDy=0;exitPerimeter=0;" parent="1" source="lOCtRu7McvlKcl7_cH1q-2" edge="1">
          <mxGeometry width="50" height="50" relative="1" as="geometry">
            <mxPoint x="571" y="384" as="sourcePoint" />
            <mxPoint x="586" y="743" as="targetPoint" />
            <Array as="points">
              <mxPoint x="583" y="350" />
            </Array>
          </mxGeometry>
        </mxCell>
        <mxCell id="9dpK1fQL-XPzfSK7kjcw-31" value="" style="endArrow=classic;startArrow=classic;html=1;rounded=0;entryX=0.522;entryY=0.036;entryDx=0;entryDy=0;entryPerimeter=0;exitX=1;exitY=0.733;exitDx=0;exitDy=0;exitPerimeter=0;" parent="1" source="lOCtRu7McvlKcl7_cH1q-20" target="lOCtRu7McvlKcl7_cH1q-54" edge="1">
          <mxGeometry width="50" height="50" relative="1" as="geometry">
            <mxPoint x="665" y="651" as="sourcePoint" />
            <mxPoint x="715" y="601" as="targetPoint" />
            <Array as="points">
              <mxPoint x="738" y="643" />
            </Array>
          </mxGeometry>
        </mxCell>
        <mxCell id="9dpK1fQL-XPzfSK7kjcw-32" value="Response" style="text;html=1;align=center;verticalAlign=middle;resizable=0;points=[];autosize=1;strokeColor=none;fillColor=none;" parent="1" vertex="1">
          <mxGeometry x="459" y="638" width="72" height="26" as="geometry" />
        </mxCell>
        <mxCell id="9dpK1fQL-XPzfSK7kjcw-33" value="Request" style="text;html=1;align=center;verticalAlign=middle;resizable=0;points=[];autosize=1;strokeColor=none;fillColor=none;" parent="1" vertex="1">
          <mxGeometry x="581" y="716" width="63" height="26" as="geometry" />
        </mxCell>
        <mxCell id="9dpK1fQL-XPzfSK7kjcw-34" value="Request" style="text;html=1;align=center;verticalAlign=middle;resizable=0;points=[];autosize=1;strokeColor=none;fillColor=none;" parent="1" vertex="1">
          <mxGeometry x="732" y="725" width="63" height="26" as="geometry" />
        </mxCell>
        <mxCell id="9dpK1fQL-XPzfSK7kjcw-35" value="GATEWAY" style="text;html=1;align=center;verticalAlign=middle;whiteSpace=wrap;rounded=0;" parent="1" vertex="1">
          <mxGeometry x="81" y="277" width="60" height="30" as="geometry" />
        </mxCell>
      </root>
    </mxGraphModel>
  </diagram>
  <diagram id="R5J8YKoElLgqUv03_ICN" name="Diagrama AcountService nível 2">
    <mxGraphModel dx="880" dy="532" grid="0" gridSize="10" guides="1" tooltips="1" connect="1" arrows="1" fold="1" page="1" pageScale="1" pageWidth="827" pageHeight="1169" math="0" shadow="0">
      <root>
        <mxCell id="0" />
        <mxCell id="1" parent="0" />
        <mxCell id="IbNnHg6MxAiUUk2vsYBs-1" value="" style="group" parent="1" vertex="1" connectable="0">
          <mxGeometry x="296" y="19" width="118" height="79" as="geometry" />
        </mxCell>
        <mxCell id="IbNnHg6MxAiUUk2vsYBs-2" value="" style="image;sketch=0;aspect=fixed;html=1;points=[];align=center;fontSize=12;image=img/lib/mscae/Storage_sync_service.svg;" parent="IbNnHg6MxAiUUk2vsYBs-1" vertex="1">
          <mxGeometry x="18.364238410596027" width="61.52884615384615" height="61.52884615384615" as="geometry" />
        </mxCell>
        <mxCell id="IbNnHg6MxAiUUk2vsYBs-3" value="ACOUNT_SERVICE" style="text;html=1;align=center;verticalAlign=middle;resizable=0;points=[];autosize=1;strokeColor=none;fillColor=none;" parent="IbNnHg6MxAiUUk2vsYBs-1" vertex="1">
          <mxGeometry y="59.25" width="128" height="26" as="geometry" />
        </mxCell>
        <mxCell id="5ec68IZCPVvxS03uBp_g-1" value="" style="endArrow=classic;startArrow=classic;html=1;rounded=0;exitX=1;exitY=0.5;exitDx=0;exitDy=0;entryX=0;entryY=0.5;entryDx=0;entryDy=0;" parent="1" source="5ec68IZCPVvxS03uBp_g-3" target="5ec68IZCPVvxS03uBp_g-2" edge="1">
          <mxGeometry width="50" height="50" relative="1" as="geometry">
            <mxPoint x="178.00199999999995" y="190.476" as="sourcePoint" />
            <mxPoint x="351.27" y="189.5" as="targetPoint" />
          </mxGeometry>
        </mxCell>
        <mxCell id="uHEUwv6rvoEIlI0T_SYp-5" style="edgeStyle=orthogonalEdgeStyle;rounded=0;orthogonalLoop=1;jettySize=auto;html=1;exitX=1;exitY=0.5;exitDx=0;exitDy=0;entryX=0.75;entryY=0;entryDx=0;entryDy=0;" parent="1" source="5ec68IZCPVvxS03uBp_g-2" target="5ec68IZCPVvxS03uBp_g-4" edge="1">
          <mxGeometry relative="1" as="geometry" />
        </mxCell>
        <mxCell id="5ec68IZCPVvxS03uBp_g-2" value="Service" style="rhombus;whiteSpace=wrap;html=1;" parent="1" vertex="1">
          <mxGeometry x="369" y="150" width="80" height="80" as="geometry" />
        </mxCell>
        <mxCell id="5ec68IZCPVvxS03uBp_g-3" value="Controller" style="rounded=0;whiteSpace=wrap;html=1;" parent="1" vertex="1">
          <mxGeometry x="41" y="160" width="120" height="60" as="geometry" />
        </mxCell>
        <mxCell id="5ec68IZCPVvxS03uBp_g-4" value="métodos" style="swimlane;fontStyle=0;childLayout=stackLayout;horizontal=1;startSize=30;horizontalStack=0;resizeParent=1;resizeParentMax=0;resizeLast=0;collapsible=1;marginBottom=0;whiteSpace=wrap;html=1;" parent="1" vertex="1">
          <mxGeometry x="282" y="294" width="410" height="296" as="geometry" />
        </mxCell>
        <mxCell id="5ec68IZCPVvxS03uBp_g-5" value="NewAcount(&lt;span style=&quot;background-color: initial;&quot;&gt;@RequestParam String nome,&lt;/span&gt;&lt;span style=&quot;background-color: initial;&quot;&gt;&amp;nbsp; &amp;nbsp; &amp;nbsp; &amp;nbsp; &amp;nbsp; &amp;nbsp; &amp;nbsp; &amp;nbsp; &amp;nbsp; &amp;nbsp; &amp;nbsp; &amp;nbsp; &amp;nbsp; &amp;nbsp; &amp;nbsp; &amp;nbsp; &amp;nbsp; &amp;nbsp; &amp;nbsp; &amp;nbsp; &amp;nbsp; &amp;nbsp; &amp;nbsp; &amp;nbsp; &amp;nbsp; &amp;nbsp; String sobrenome,&lt;/span&gt;&lt;span style=&quot;background-color: initial;&quot;&gt;Long documento,&lt;/span&gt;&lt;span style=&quot;background-color: initial;&quot;&gt;LocalDate dataNascimento,&lt;/span&gt;&lt;div&gt;String logradouro,&amp;nbsp;&lt;span style=&quot;background-color: initial;&quot;&gt;String numero,&lt;/span&gt;&lt;span style=&quot;background-color: initial;&quot;&gt;String bairro,&lt;/span&gt;&lt;span style=&quot;background-color: initial;&quot;&gt;String referencia,&lt;/span&gt;&lt;/div&gt;&lt;div&gt;String cep,&amp;nbsp;&lt;span style=&quot;background-color: initial;&quot;&gt;Long prefixo,&lt;/span&gt;&lt;span style=&quot;background-color: initial;&quot;&gt;Long telefone,&lt;/span&gt;&lt;span style=&quot;background-color: initial;&quot;&gt;String email,&lt;/span&gt;&lt;span style=&quot;background-color: initial;&quot;&gt;Double score,&lt;/span&gt;&lt;span style=&quot;background-color: initial;&quot;&gt;TIPOACOUNT tipoacount)&lt;/span&gt;&lt;/div&gt;" style="text;strokeColor=none;fillColor=none;align=left;verticalAlign=middle;spacingLeft=4;spacingRight=4;overflow=hidden;points=[[0,0.5],[1,0.5]];portConstraint=eastwest;rotatable=0;whiteSpace=wrap;html=1;" parent="5ec68IZCPVvxS03uBp_g-4" vertex="1">
          <mxGeometry y="30" width="410" height="86" as="geometry" />
        </mxCell>
        <mxCell id="5ec68IZCPVvxS03uBp_g-6" value="BuscarAcountPorId(Long id)" style="text;strokeColor=none;fillColor=none;align=left;verticalAlign=middle;spacingLeft=4;spacingRight=4;overflow=hidden;points=[[0,0.5],[1,0.5]];portConstraint=eastwest;rotatable=0;whiteSpace=wrap;html=1;" parent="5ec68IZCPVvxS03uBp_g-4" vertex="1">
          <mxGeometry y="116" width="410" height="30" as="geometry" />
        </mxCell>
        <mxCell id="5ec68IZCPVvxS03uBp_g-7" value="BuscarAcountPorAcountNumber(String acount)" style="text;strokeColor=none;fillColor=none;align=left;verticalAlign=middle;spacingLeft=4;spacingRight=4;overflow=hidden;points=[[0,0.5],[1,0.5]];portConstraint=eastwest;rotatable=0;whiteSpace=wrap;html=1;" parent="5ec68IZCPVvxS03uBp_g-4" vertex="1">
          <mxGeometry y="146" width="410" height="30" as="geometry" />
        </mxCell>
        <mxCell id="uHEUwv6rvoEIlI0T_SYp-4" value="BloquearAcount(@RequestParam Long id, @RequestParam String justificativa)" style="text;strokeColor=none;fillColor=none;align=left;verticalAlign=middle;spacingLeft=4;spacingRight=4;overflow=hidden;points=[[0,0.5],[1,0.5]];portConstraint=eastwest;rotatable=0;whiteSpace=wrap;html=1;" parent="5ec68IZCPVvxS03uBp_g-4" vertex="1">
          <mxGeometry y="176" width="410" height="30" as="geometry" />
        </mxCell>
        <mxCell id="Xqa_5tmYGpnyi4cMyv3w-1" value="ListarAcounts()" style="text;strokeColor=none;fillColor=none;align=left;verticalAlign=middle;spacingLeft=4;spacingRight=4;overflow=hidden;points=[[0,0.5],[1,0.5]];portConstraint=eastwest;rotatable=0;whiteSpace=wrap;html=1;" parent="5ec68IZCPVvxS03uBp_g-4" vertex="1">
          <mxGeometry y="206" width="410" height="30" as="geometry" />
        </mxCell>
        <mxCell id="hqErkhahZ6zCKz0JQIkW-1" value="public ResponseEntity&amp;lt;AcountResponse&amp;gt; SalvarAlteracao(@RequestBody AcountResponse acountResponse)" style="text;strokeColor=none;fillColor=none;align=left;verticalAlign=middle;spacingLeft=4;spacingRight=4;overflow=hidden;points=[[0,0.5],[1,0.5]];portConstraint=eastwest;rotatable=0;whiteSpace=wrap;html=1;" parent="5ec68IZCPVvxS03uBp_g-4" vertex="1">
          <mxGeometry y="236" width="410" height="30" as="geometry" />
        </mxCell>
        <mxCell id="k_29SkpBVAiXZB1aI9wm-1" value="&lt;div style=&quot;font-size: 14px; line-height: 19px; white-space: pre;&quot;&gt;&lt;font face=&quot;Helvetica&quot; style=&quot;color: rgb(0, 0, 0);&quot;&gt;AlterarLimite(Long id, Double novoLimite)&lt;/font&gt;&lt;/div&gt;" style="text;strokeColor=none;fillColor=none;align=left;verticalAlign=middle;spacingLeft=4;spacingRight=4;overflow=hidden;points=[[0,0.5],[1,0.5]];portConstraint=eastwest;rotatable=0;whiteSpace=wrap;html=1;" vertex="1" parent="5ec68IZCPVvxS03uBp_g-4">
          <mxGeometry y="266" width="410" height="30" as="geometry" />
        </mxCell>
        <mxCell id="T58Tx6EhHx9lnsg4l779-1" value="" style="group" parent="1" vertex="1" connectable="0">
          <mxGeometry x="65" y="603" width="104" height="96" as="geometry" />
        </mxCell>
        <mxCell id="T58Tx6EhHx9lnsg4l779-2" value="" style="image;sketch=0;aspect=fixed;html=1;points=[];align=center;fontSize=12;image=img/lib/mscae/Azure_Database_for_PostgreSQL_servers.svg;" parent="T58Tx6EhHx9lnsg4l779-1" vertex="1">
          <mxGeometry x="16" width="56.24" height="74" as="geometry" />
        </mxCell>
        <mxCell id="T58Tx6EhHx9lnsg4l779-3" value="DB_BANCOFAKE" style="text;html=1;align=center;verticalAlign=middle;resizable=0;points=[];autosize=1;strokeColor=none;fillColor=none;" parent="T58Tx6EhHx9lnsg4l779-1" vertex="1">
          <mxGeometry x="-11" y="70" width="115" height="26" as="geometry" />
        </mxCell>
        <mxCell id="uHEUwv6rvoEIlI0T_SYp-1" value="" style="group" parent="1" vertex="1" connectable="0">
          <mxGeometry x="501" y="598" width="131" height="104" as="geometry" />
        </mxCell>
        <mxCell id="uHEUwv6rvoEIlI0T_SYp-2" value="" style="image;sketch=0;aspect=fixed;html=1;points=[];align=center;fontSize=12;image=img/lib/mscae/Storage_sync_service.svg;" parent="uHEUwv6rvoEIlI0T_SYp-1" vertex="1">
          <mxGeometry x="23.5" width="81" height="81" as="geometry" />
        </mxCell>
        <mxCell id="uHEUwv6rvoEIlI0T_SYp-3" value="CLIENT_SERVICE" style="text;html=1;align=center;verticalAlign=middle;resizable=0;points=[];autosize=1;strokeColor=none;fillColor=none;" parent="uHEUwv6rvoEIlI0T_SYp-1" vertex="1">
          <mxGeometry x="11" y="78" width="120" height="26" as="geometry" />
        </mxCell>
        <mxCell id="uHEUwv6rvoEIlI0T_SYp-6" value="Request" style="text;html=1;align=center;verticalAlign=middle;resizable=0;points=[];autosize=1;strokeColor=none;fillColor=none;" parent="1" vertex="1">
          <mxGeometry x="306" y="166" width="63" height="26" as="geometry" />
        </mxCell>
        <mxCell id="uHEUwv6rvoEIlI0T_SYp-7" value="Response" style="text;html=1;align=center;verticalAlign=middle;resizable=0;points=[];autosize=1;strokeColor=none;fillColor=none;" parent="1" vertex="1">
          <mxGeometry x="159" y="189" width="72" height="26" as="geometry" />
        </mxCell>
        <mxCell id="uHEUwv6rvoEIlI0T_SYp-9" value="" style="endArrow=classic;startArrow=classic;html=1;rounded=0;entryX=0.006;entryY=0.383;entryDx=0;entryDy=0;entryPerimeter=0;exitX=0;exitY=0.5;exitDx=0;exitDy=0;" parent="1" source="5ec68IZCPVvxS03uBp_g-5" target="uHEUwv6rvoEIlI0T_SYp-2" edge="1">
          <mxGeometry width="50" height="50" relative="1" as="geometry">
            <mxPoint x="264" y="554" as="sourcePoint" />
            <mxPoint x="314" y="504" as="targetPoint" />
            <Array as="points">
              <mxPoint x="203" y="367" />
              <mxPoint x="203" y="629" />
            </Array>
          </mxGeometry>
        </mxCell>
        <mxCell id="uHEUwv6rvoEIlI0T_SYp-10" value="Request&lt;div&gt;NovoCliente&lt;/div&gt;" style="text;html=1;align=center;verticalAlign=middle;resizable=0;points=[];autosize=1;strokeColor=none;fillColor=none;" parent="1" vertex="1">
          <mxGeometry x="409" y="588" width="83" height="41" as="geometry" />
        </mxCell>
        <mxCell id="uHEUwv6rvoEIlI0T_SYp-12" style="edgeStyle=orthogonalEdgeStyle;rounded=0;orthogonalLoop=1;jettySize=auto;html=1;exitX=1;exitY=0.279;exitDx=0;exitDy=0;entryX=0.496;entryY=1.038;entryDx=0;entryDy=0;entryPerimeter=0;exitPerimeter=0;" parent="1" source="5ec68IZCPVvxS03uBp_g-5" target="T58Tx6EhHx9lnsg4l779-3" edge="1">
          <mxGeometry relative="1" as="geometry">
            <mxPoint x="83" y="775" as="targetPoint" />
            <Array as="points">
              <mxPoint x="801" y="348" />
              <mxPoint x="801" y="775" />
              <mxPoint x="111" y="775" />
            </Array>
          </mxGeometry>
        </mxCell>
        <mxCell id="uHEUwv6rvoEIlI0T_SYp-13" value="Request&lt;div&gt;&lt;br&gt;&lt;/div&gt;" style="text;html=1;align=center;verticalAlign=middle;resizable=0;points=[];autosize=1;strokeColor=none;fillColor=none;" parent="1" vertex="1">
          <mxGeometry x="107" y="698" width="63" height="41" as="geometry" />
        </mxCell>
        <mxCell id="uHEUwv6rvoEIlI0T_SYp-14" value="" style="endArrow=none;html=1;rounded=0;exitX=1;exitY=0.5;exitDx=0;exitDy=0;" parent="1" source="5ec68IZCPVvxS03uBp_g-6" edge="1">
          <mxGeometry width="50" height="50" relative="1" as="geometry">
            <mxPoint x="725" y="466" as="sourcePoint" />
            <mxPoint x="801" y="425" as="targetPoint" />
          </mxGeometry>
        </mxCell>
        <mxCell id="uHEUwv6rvoEIlI0T_SYp-15" value="" style="endArrow=none;html=1;rounded=0;exitX=1;exitY=0.5;exitDx=0;exitDy=0;" parent="1" source="5ec68IZCPVvxS03uBp_g-7" edge="1">
          <mxGeometry width="50" height="50" relative="1" as="geometry">
            <mxPoint x="686" y="528" as="sourcePoint" />
            <mxPoint x="796" y="455" as="targetPoint" />
          </mxGeometry>
        </mxCell>
        <mxCell id="uHEUwv6rvoEIlI0T_SYp-16" value="" style="endArrow=none;html=1;rounded=0;exitX=1;exitY=0.5;exitDx=0;exitDy=0;" parent="1" source="uHEUwv6rvoEIlI0T_SYp-4" edge="1">
          <mxGeometry width="50" height="50" relative="1" as="geometry">
            <mxPoint x="704" y="513" as="sourcePoint" />
            <mxPoint x="799" y="485" as="targetPoint" />
          </mxGeometry>
        </mxCell>
        <mxCell id="uHEUwv6rvoEIlI0T_SYp-17" value="Response" style="text;html=1;align=center;verticalAlign=middle;resizable=0;points=[];autosize=1;strokeColor=none;fillColor=none;" parent="1" vertex="1">
          <mxGeometry x="703" y="326" width="72" height="26" as="geometry" />
        </mxCell>
        <mxCell id="uHEUwv6rvoEIlI0T_SYp-18" value="Response" style="text;html=1;align=center;verticalAlign=middle;resizable=0;points=[];autosize=1;strokeColor=none;fillColor=none;" parent="1" vertex="1">
          <mxGeometry x="705" y="403" width="72" height="26" as="geometry" />
        </mxCell>
        <mxCell id="uHEUwv6rvoEIlI0T_SYp-19" value="Response" style="text;html=1;align=center;verticalAlign=middle;resizable=0;points=[];autosize=1;strokeColor=none;fillColor=none;" parent="1" vertex="1">
          <mxGeometry x="706" y="434" width="72" height="26" as="geometry" />
        </mxCell>
        <mxCell id="uHEUwv6rvoEIlI0T_SYp-20" value="Response" style="text;html=1;align=center;verticalAlign=middle;resizable=0;points=[];autosize=1;strokeColor=none;fillColor=none;" parent="1" vertex="1">
          <mxGeometry x="706" y="464" width="72" height="26" as="geometry" />
        </mxCell>
        <mxCell id="WSZUS5k7CWuNkEIgvhFt-1" value="&lt;h1 style=&quot;margin-top: 0px;&quot;&gt;Diagrama de Funcionamento Service&lt;/h1&gt;" style="text;html=1;whiteSpace=wrap;overflow=hidden;rounded=0;" parent="1" vertex="1">
          <mxGeometry x="301" y="89" width="471" height="55" as="geometry" />
        </mxCell>
        <mxCell id="hqErkhahZ6zCKz0JQIkW-2" value="" style="endArrow=none;html=1;rounded=0;exitX=1;exitY=0.5;exitDx=0;exitDy=0;" parent="1" edge="1">
          <mxGeometry width="50" height="50" relative="1" as="geometry">
            <mxPoint x="691" y="520" as="sourcePoint" />
            <mxPoint x="800" y="520" as="targetPoint" />
          </mxGeometry>
        </mxCell>
        <mxCell id="hqErkhahZ6zCKz0JQIkW-3" value="" style="endArrow=none;html=1;rounded=0;exitX=1;exitY=0.5;exitDx=0;exitDy=0;" parent="1" edge="1">
          <mxGeometry width="50" height="50" relative="1" as="geometry">
            <mxPoint x="692" y="547" as="sourcePoint" />
            <mxPoint x="801" y="547" as="targetPoint" />
          </mxGeometry>
        </mxCell>
        <mxCell id="hqErkhahZ6zCKz0JQIkW-4" value="Response" style="text;html=1;align=center;verticalAlign=middle;resizable=0;points=[];autosize=1;strokeColor=none;fillColor=none;" parent="1" vertex="1">
          <mxGeometry x="709" y="499" width="72" height="26" as="geometry" />
        </mxCell>
        <mxCell id="hqErkhahZ6zCKz0JQIkW-5" value="Response" style="text;html=1;align=center;verticalAlign=middle;resizable=0;points=[];autosize=1;strokeColor=none;fillColor=none;" parent="1" vertex="1">
          <mxGeometry x="710" y="527" width="72" height="26" as="geometry" />
        </mxCell>
        <mxCell id="jtrxY2ueJdGeBzISy75R-1" value="" style="group" parent="1" vertex="1" connectable="0">
          <mxGeometry x="250" y="811" width="92" height="96" as="geometry" />
        </mxCell>
        <mxCell id="jtrxY2ueJdGeBzISy75R-2" value="" style="image;sketch=0;aspect=fixed;html=1;points=[];align=center;fontSize=12;image=img/lib/mscae/Azure_Database_for_PostgreSQL_servers.svg;" parent="jtrxY2ueJdGeBzISy75R-1" vertex="1">
          <mxGeometry x="16" width="56.24" height="74" as="geometry" />
        </mxCell>
        <mxCell id="jtrxY2ueJdGeBzISy75R-3" value="DB_CLIENTE" style="text;html=1;align=center;verticalAlign=middle;resizable=0;points=[];autosize=1;strokeColor=none;fillColor=none;" parent="jtrxY2ueJdGeBzISy75R-1" vertex="1">
          <mxGeometry y="70" width="92" height="26" as="geometry" />
        </mxCell>
        <mxCell id="jtrxY2ueJdGeBzISy75R-4" value="" style="endArrow=classic;startArrow=classic;html=1;rounded=0;strokeColor=default;align=center;verticalAlign=middle;fontFamily=Helvetica;fontSize=11;fontColor=default;labelBackgroundColor=default;entryX=0.492;entryY=1.115;entryDx=0;entryDy=0;entryPerimeter=0;exitX=0.978;exitY=0.378;exitDx=0;exitDy=0;exitPerimeter=0;" parent="1" source="jtrxY2ueJdGeBzISy75R-2" target="uHEUwv6rvoEIlI0T_SYp-3" edge="1">
          <mxGeometry width="50" height="50" relative="1" as="geometry">
            <mxPoint x="425.5" y="866" as="sourcePoint" />
            <mxPoint x="475.5" y="816" as="targetPoint" />
            <Array as="points">
              <mxPoint x="571" y="835" />
            </Array>
          </mxGeometry>
        </mxCell>
        <mxCell id="jtrxY2ueJdGeBzISy75R-5" value="Request" style="text;html=1;align=center;verticalAlign=middle;resizable=0;points=[];autosize=1;strokeColor=none;fillColor=none;" parent="1" vertex="1">
          <mxGeometry x="318" y="814" width="63" height="26" as="geometry" />
        </mxCell>
        <mxCell id="jtrxY2ueJdGeBzISy75R-6" value="Response" style="text;html=1;align=center;verticalAlign=middle;resizable=0;points=[];autosize=1;strokeColor=none;fillColor=none;" parent="1" vertex="1">
          <mxGeometry x="568" y="708" width="72" height="26" as="geometry" />
        </mxCell>
        <mxCell id="k_29SkpBVAiXZB1aI9wm-6" value="" style="endArrow=none;html=1;rounded=0;exitX=1;exitY=0.5;exitDx=0;exitDy=0;" edge="1" parent="1">
          <mxGeometry width="50" height="50" relative="1" as="geometry">
            <mxPoint x="692" y="578" as="sourcePoint" />
            <mxPoint x="801" y="578" as="targetPoint" />
          </mxGeometry>
        </mxCell>
        <mxCell id="k_29SkpBVAiXZB1aI9wm-7" value="Response" style="text;html=1;align=center;verticalAlign=middle;resizable=0;points=[];autosize=1;strokeColor=none;fillColor=none;" vertex="1" parent="1">
          <mxGeometry x="712" y="557" width="72" height="26" as="geometry" />
        </mxCell>
      </root>
    </mxGraphModel>
  </diagram>
  <diagram id="GEKwJemj9coqhKG8nNNQ" name="DIagrama Acount_Service Nível 3">
    <mxGraphModel dx="880" dy="532" grid="0" gridSize="10" guides="1" tooltips="1" connect="1" arrows="1" fold="1" page="1" pageScale="1" pageWidth="827" pageHeight="1169" math="0" shadow="0">
      <root>
        <mxCell id="0" />
        <mxCell id="1" parent="0" />
        <mxCell id="YVovfUs217dtdvi78VXP-1" value="" style="group" parent="1" vertex="1" connectable="0">
          <mxGeometry x="211" y="71" width="118" height="79" as="geometry" />
        </mxCell>
        <mxCell id="YVovfUs217dtdvi78VXP-2" value="" style="image;sketch=0;aspect=fixed;html=1;points=[];align=center;fontSize=12;image=img/lib/mscae/Storage_sync_service.svg;" parent="YVovfUs217dtdvi78VXP-1" vertex="1">
          <mxGeometry x="18.364238410596027" width="61.52884615384615" height="61.52884615384615" as="geometry" />
        </mxCell>
        <mxCell id="YVovfUs217dtdvi78VXP-3" value="ACOUNT_SERVICE" style="text;html=1;align=center;verticalAlign=middle;resizable=0;points=[];autosize=1;strokeColor=none;fillColor=none;" parent="YVovfUs217dtdvi78VXP-1" vertex="1">
          <mxGeometry y="59.25" width="128" height="26" as="geometry" />
        </mxCell>
        <mxCell id="YVovfUs217dtdvi78VXP-5" value="Acount" style="swimlane;fontStyle=0;childLayout=stackLayout;horizontal=1;startSize=30;horizontalStack=0;resizeParent=1;resizeParentMax=0;resizeLast=0;collapsible=1;marginBottom=0;whiteSpace=wrap;html=1;" parent="1" vertex="1">
          <mxGeometry x="138" y="252" width="203" height="390" as="geometry" />
        </mxCell>
        <mxCell id="YVovfUs217dtdvi78VXP-6" value="Long id" style="text;strokeColor=none;fillColor=none;align=left;verticalAlign=middle;spacingLeft=4;spacingRight=4;overflow=hidden;points=[[0,0.5],[1,0.5]];portConstraint=eastwest;rotatable=0;whiteSpace=wrap;html=1;" parent="YVovfUs217dtdvi78VXP-5" vertex="1">
          <mxGeometry y="30" width="203" height="30" as="geometry" />
        </mxCell>
        <mxCell id="ctPSvSQ2FxVlQNFM5SAv-1" value="String Cliente" style="text;strokeColor=none;fillColor=none;align=left;verticalAlign=middle;spacingLeft=4;spacingRight=4;overflow=hidden;points=[[0,0.5],[1,0.5]];portConstraint=eastwest;rotatable=0;whiteSpace=wrap;html=1;" parent="YVovfUs217dtdvi78VXP-5" vertex="1">
          <mxGeometry y="60" width="203" height="30" as="geometry" />
        </mxCell>
        <mxCell id="_NSQ7ajBdfLY9Q2kzJn_-1" value="Long Documento" style="text;strokeColor=none;fillColor=none;align=left;verticalAlign=middle;spacingLeft=4;spacingRight=4;overflow=hidden;points=[[0,0.5],[1,0.5]];portConstraint=eastwest;rotatable=0;whiteSpace=wrap;html=1;" parent="YVovfUs217dtdvi78VXP-5" vertex="1">
          <mxGeometry y="90" width="203" height="30" as="geometry" />
        </mxCell>
        <mxCell id="YVovfUs217dtdvi78VXP-7" value="String contaNumber" style="text;strokeColor=none;fillColor=none;align=left;verticalAlign=middle;spacingLeft=4;spacingRight=4;overflow=hidden;points=[[0,0.5],[1,0.5]];portConstraint=eastwest;rotatable=0;whiteSpace=wrap;html=1;" parent="YVovfUs217dtdvi78VXP-5" vertex="1">
          <mxGeometry y="120" width="203" height="30" as="geometry" />
        </mxCell>
        <mxCell id="YVovfUs217dtdvi78VXP-8" value="String senhaAutenticacao" style="text;strokeColor=none;fillColor=none;align=left;verticalAlign=middle;spacingLeft=4;spacingRight=4;overflow=hidden;points=[[0,0.5],[1,0.5]];portConstraint=eastwest;rotatable=0;whiteSpace=wrap;html=1;" parent="YVovfUs217dtdvi78VXP-5" vertex="1">
          <mxGeometry y="150" width="203" height="30" as="geometry" />
        </mxCell>
        <mxCell id="_okWZf_MHqfmdM7f-8Ci-1" value="String senhaAutorizacao" style="text;strokeColor=none;fillColor=none;align=left;verticalAlign=middle;spacingLeft=4;spacingRight=4;overflow=hidden;points=[[0,0.5],[1,0.5]];portConstraint=eastwest;rotatable=0;whiteSpace=wrap;html=1;" parent="YVovfUs217dtdvi78VXP-5" vertex="1">
          <mxGeometry y="180" width="203" height="30" as="geometry" />
        </mxCell>
        <mxCell id="_okWZf_MHqfmdM7f-8Ci-2" value="Double Saldo" style="text;strokeColor=none;fillColor=none;align=left;verticalAlign=middle;spacingLeft=4;spacingRight=4;overflow=hidden;points=[[0,0.5],[1,0.5]];portConstraint=eastwest;rotatable=0;whiteSpace=wrap;html=1;" parent="YVovfUs217dtdvi78VXP-5" vertex="1">
          <mxGeometry y="210" width="203" height="30" as="geometry" />
        </mxCell>
        <mxCell id="-E6jeAKjzXNc2ir-xIJH-1" value="Boolean bloqueio" style="text;strokeColor=none;fillColor=none;align=left;verticalAlign=middle;spacingLeft=4;spacingRight=4;overflow=hidden;points=[[0,0.5],[1,0.5]];portConstraint=eastwest;rotatable=0;whiteSpace=wrap;html=1;" parent="YVovfUs217dtdvi78VXP-5" vertex="1">
          <mxGeometry y="240" width="203" height="30" as="geometry" />
        </mxCell>
        <mxCell id="qUCNJmt9hQNqkKH_4KP7-5" value="TIPOACOUNT tipoAcount" style="text;strokeColor=none;fillColor=none;align=left;verticalAlign=middle;spacingLeft=4;spacingRight=4;overflow=hidden;points=[[0,0.5],[1,0.5]];portConstraint=eastwest;rotatable=0;whiteSpace=wrap;html=1;" parent="YVovfUs217dtdvi78VXP-5" vertex="1">
          <mxGeometry y="270" width="203" height="30" as="geometry" />
        </mxCell>
        <mxCell id="_NSQ7ajBdfLY9Q2kzJn_-2" value="Boolean ativo" style="text;strokeColor=none;fillColor=none;align=left;verticalAlign=middle;spacingLeft=4;spacingRight=4;overflow=hidden;points=[[0,0.5],[1,0.5]];portConstraint=eastwest;rotatable=0;whiteSpace=wrap;html=1;" parent="YVovfUs217dtdvi78VXP-5" vertex="1">
          <mxGeometry y="300" width="203" height="30" as="geometry" />
        </mxCell>
        <mxCell id="_okWZf_MHqfmdM7f-8Ci-3" value="LocalDateTime timeStamp" style="text;strokeColor=none;fillColor=none;align=left;verticalAlign=middle;spacingLeft=4;spacingRight=4;overflow=hidden;points=[[0,0.5],[1,0.5]];portConstraint=eastwest;rotatable=0;whiteSpace=wrap;html=1;" parent="YVovfUs217dtdvi78VXP-5" vertex="1">
          <mxGeometry y="330" width="203" height="30" as="geometry" />
        </mxCell>
        <mxCell id="_NSQ7ajBdfLY9Q2kzJn_-3" value="List&amp;lt;String&amp;gt; Notificacao" style="text;strokeColor=none;fillColor=none;align=left;verticalAlign=middle;spacingLeft=4;spacingRight=4;overflow=hidden;points=[[0,0.5],[1,0.5]];portConstraint=eastwest;rotatable=0;whiteSpace=wrap;html=1;" parent="YVovfUs217dtdvi78VXP-5" vertex="1">
          <mxGeometry y="360" width="203" height="30" as="geometry" />
        </mxCell>
        <mxCell id="_0YuV8zlJTk5XvjAGQPs-4" value="&lt;h1 style=&quot;margin-top: 0px;&quot;&gt;Diagrama de Entidade e Relacionamento&lt;/h1&gt;" style="text;html=1;whiteSpace=wrap;overflow=hidden;rounded=0;" parent="1" vertex="1">
          <mxGeometry x="214" y="150" width="471" height="55" as="geometry" />
        </mxCell>
        <mxCell id="qUCNJmt9hQNqkKH_4KP7-1" value="TIPOACOUNT" style="swimlane;fontStyle=0;childLayout=stackLayout;horizontal=1;startSize=30;horizontalStack=0;resizeParent=1;resizeParentMax=0;resizeLast=0;collapsible=1;marginBottom=0;whiteSpace=wrap;html=1;" parent="1" vertex="1">
          <mxGeometry x="545" y="557" width="140" height="120" as="geometry" />
        </mxCell>
        <mxCell id="qUCNJmt9hQNqkKH_4KP7-2" value="SALARIO" style="text;strokeColor=none;fillColor=none;align=left;verticalAlign=middle;spacingLeft=4;spacingRight=4;overflow=hidden;points=[[0,0.5],[1,0.5]];portConstraint=eastwest;rotatable=0;whiteSpace=wrap;html=1;" parent="qUCNJmt9hQNqkKH_4KP7-1" vertex="1">
          <mxGeometry y="30" width="140" height="30" as="geometry" />
        </mxCell>
        <mxCell id="qUCNJmt9hQNqkKH_4KP7-3" value="CORRENT" style="text;strokeColor=none;fillColor=none;align=left;verticalAlign=middle;spacingLeft=4;spacingRight=4;overflow=hidden;points=[[0,0.5],[1,0.5]];portConstraint=eastwest;rotatable=0;whiteSpace=wrap;html=1;" parent="qUCNJmt9hQNqkKH_4KP7-1" vertex="1">
          <mxGeometry y="60" width="140" height="30" as="geometry" />
        </mxCell>
        <mxCell id="qUCNJmt9hQNqkKH_4KP7-4" value="POUPANCA" style="text;strokeColor=none;fillColor=none;align=left;verticalAlign=middle;spacingLeft=4;spacingRight=4;overflow=hidden;points=[[0,0.5],[1,0.5]];portConstraint=eastwest;rotatable=0;whiteSpace=wrap;html=1;" parent="qUCNJmt9hQNqkKH_4KP7-1" vertex="1">
          <mxGeometry y="90" width="140" height="30" as="geometry" />
        </mxCell>
        <mxCell id="qUCNJmt9hQNqkKH_4KP7-6" style="edgeStyle=orthogonalEdgeStyle;rounded=0;orthogonalLoop=1;jettySize=auto;html=1;exitX=1;exitY=0.5;exitDx=0;exitDy=0;entryX=0;entryY=0;entryDx=0;entryDy=0;" parent="1" source="qUCNJmt9hQNqkKH_4KP7-5" target="qUCNJmt9hQNqkKH_4KP7-1" edge="1">
          <mxGeometry relative="1" as="geometry" />
        </mxCell>
        <mxCell id="wbssnObpe1IhiK6EY6E6-1" value="&lt;h1 style=&quot;margin-top: 0px;&quot;&gt;Regras de Negócio&lt;/h1&gt;&lt;div&gt;Não permitido&lt;/div&gt;&lt;div&gt;Conta pagadora ou Beneficiaria bloqueada&lt;/div&gt;&lt;div&gt;Saldo insuficiente&lt;/div&gt;" style="text;html=1;whiteSpace=wrap;overflow=hidden;rounded=0;" parent="1" vertex="1">
          <mxGeometry x="416" y="245" width="269" height="120" as="geometry" />
        </mxCell>
      </root>
    </mxGraphModel>
  </diagram>
  <diagram id="SKRgxYNIY0BghEGX19s2" name="Diagrama de Client_Service Nível 2">
    <mxGraphModel dx="880" dy="532" grid="0" gridSize="10" guides="1" tooltips="1" connect="1" arrows="1" fold="1" page="1" pageScale="1" pageWidth="827" pageHeight="1169" math="0" shadow="0">
      <root>
        <mxCell id="0" />
        <mxCell id="1" parent="0" />
        <mxCell id="RQZGOSd0Mo2bAITl2LVJ-2" value="service" style="rhombus;whiteSpace=wrap;html=1;strokeColor=#FFFFFF;fontColor=#FFFFFF;fillColor=#182E3E;" parent="1" vertex="1">
          <mxGeometry x="189" y="219" width="80" height="80" as="geometry" />
        </mxCell>
        <mxCell id="RQZGOSd0Mo2bAITl2LVJ-3" value="" style="image;sketch=0;aspect=fixed;html=1;points=[];align=center;fontSize=12;image=img/lib/mscae/Azure_Database_for_PostgreSQL_servers.svg;strokeColor=#FFFFFF;fontColor=#FFFFFF;fillColor=#182E3E;" parent="1" vertex="1">
          <mxGeometry x="613.5244565217391" y="213.82999999999998" width="47.70652173913043" height="62.77173913043478" as="geometry" />
        </mxCell>
        <mxCell id="RQZGOSd0Mo2bAITl2LVJ-4" value="DB_CLIENTE" style="text;html=1;align=center;verticalAlign=middle;resizable=0;points=[];autosize=1;strokeColor=none;fillColor=none;fontColor=#FFFFFF;" parent="1" vertex="1">
          <mxGeometry x="593" y="273.9966666666666" width="92" height="26" as="geometry" />
        </mxCell>
        <mxCell id="RQZGOSd0Mo2bAITl2LVJ-5" value="Service" style="swimlane;fontStyle=0;childLayout=stackLayout;horizontal=1;startSize=30;horizontalStack=0;resizeParent=1;resizeParentMax=0;resizeLast=0;collapsible=1;marginBottom=0;whiteSpace=wrap;html=1;" parent="1" vertex="1">
          <mxGeometry x="117" y="346" width="696" height="264" as="geometry" />
        </mxCell>
        <mxCell id="RQZGOSd0Mo2bAITl2LVJ-6" value="&lt;span style=&quot;font-size:11.0pt;line-height:115%;&lt;br/&gt;font-family:&amp;quot;Calibri&amp;quot;,&amp;quot;sans-serif&amp;quot;;mso-ascii-theme-font:minor-latin;mso-fareast-font-family:&lt;br/&gt;Calibri;mso-fareast-theme-font:minor-latin;mso-hansi-theme-font:minor-latin;&lt;br/&gt;mso-bidi-font-family:&amp;quot;Times New Roman&amp;quot;;mso-bidi-theme-font:minor-bidi;&lt;br/&gt;mso-ansi-language:PT-BR;mso-fareast-language:EN-US;mso-bidi-language:AR-SA&quot;&gt;public ResponseEntity&amp;lt;List&amp;lt;ClienteDTO&amp;gt;&amp;gt; ListarClientes()&lt;/span&gt;" style="text;strokeColor=none;fillColor=none;align=left;verticalAlign=middle;spacingLeft=4;spacingRight=4;overflow=hidden;points=[[0,0.5],[1,0.5]];portConstraint=eastwest;rotatable=0;whiteSpace=wrap;html=1;" parent="RQZGOSd0Mo2bAITl2LVJ-5" vertex="1">
          <mxGeometry y="30" width="696" height="30" as="geometry" />
        </mxCell>
        <mxCell id="RQZGOSd0Mo2bAITl2LVJ-7" value="public ResponseEntity&amp;lt;ClienteResponseDTO&amp;gt; BuscarClientesPorId(Long id)" style="text;strokeColor=none;fillColor=none;align=left;verticalAlign=middle;spacingLeft=4;spacingRight=4;overflow=hidden;points=[[0,0.5],[1,0.5]];portConstraint=eastwest;rotatable=0;whiteSpace=wrap;html=1;" parent="RQZGOSd0Mo2bAITl2LVJ-5" vertex="1">
          <mxGeometry y="60" width="696" height="30" as="geometry" />
        </mxCell>
        <mxCell id="HNvX0eSPs19krklYhMyc-2" value="public ResponseEntity&amp;lt;ClienteResponseDTO&amp;gt; BuscarClientesPordocumento(String documento)" style="text;strokeColor=none;fillColor=none;align=left;verticalAlign=middle;spacingLeft=4;spacingRight=4;overflow=hidden;points=[[0,0.5],[1,0.5]];portConstraint=eastwest;rotatable=0;whiteSpace=wrap;html=1;" parent="RQZGOSd0Mo2bAITl2LVJ-5" vertex="1">
          <mxGeometry y="90" width="696" height="30" as="geometry" />
        </mxCell>
        <mxCell id="RQZGOSd0Mo2bAITl2LVJ-8" value="&lt;div&gt;public ResponseEntity&amp;lt;ClienteDTO&amp;gt; NovoCliente(String nome,&lt;span style=&quot;background-color: initial;&quot;&gt;&amp;nbsp;String sobrenome,&lt;/span&gt;&lt;span style=&quot;background-color: initial;&quot;&gt;LocalDate dataNascimento,&lt;/span&gt;&lt;span style=&quot;background-color: initial;&quot;&gt;String logradouro,&lt;/span&gt;&lt;/div&gt;&lt;div&gt;&amp;nbsp; &amp;nbsp; &amp;nbsp; &amp;nbsp; &amp;nbsp; &amp;nbsp; &amp;nbsp; &amp;nbsp; &amp;nbsp; &amp;nbsp; &amp;nbsp; &amp;nbsp; &amp;nbsp; &amp;nbsp; &amp;nbsp; &amp;nbsp; &amp;nbsp; &amp;nbsp; &amp;nbsp; &amp;nbsp; &amp;nbsp; &amp;nbsp; &amp;nbsp; &amp;nbsp; &amp;nbsp; &amp;nbsp; &amp;nbsp; &amp;nbsp; &amp;nbsp; &amp;nbsp;String numero,&lt;span style=&quot;background-color: initial;&quot;&gt;String bairro,&lt;/span&gt;&lt;span style=&quot;background-color: initial;&quot;&gt;String referencia,&lt;/span&gt;&lt;span style=&quot;background-color: initial;&quot;&gt;&amp;nbsp;String cep,&lt;/span&gt;&lt;span style=&quot;background-color: initial;&quot;&gt;Long prefixo,&lt;/span&gt;&lt;span style=&quot;background-color: initial;&quot;&gt;Long telefone,&lt;/span&gt;&lt;/div&gt;&lt;div&gt;&amp;nbsp; &amp;nbsp; &amp;nbsp; &amp;nbsp; &amp;nbsp; &amp;nbsp; &amp;nbsp; &amp;nbsp; &amp;nbsp; &amp;nbsp; &amp;nbsp; &amp;nbsp; &amp;nbsp; &amp;nbsp; &amp;nbsp; &amp;nbsp; &amp;nbsp; &amp;nbsp; &amp;nbsp; &amp;nbsp; &amp;nbsp; &amp;nbsp; &amp;nbsp; &amp;nbsp; &amp;nbsp; &amp;nbsp; &amp;nbsp; &amp;nbsp; &amp;nbsp; &amp;nbsp;String email,&lt;span style=&quot;background-color: initial;&quot;&gt;&amp;nbsp;Double score)&lt;/span&gt;&lt;/div&gt;" style="text;strokeColor=none;fillColor=none;align=left;verticalAlign=middle;spacingLeft=4;spacingRight=4;overflow=hidden;points=[[0,0.5],[1,0.5]];portConstraint=eastwest;rotatable=0;whiteSpace=wrap;html=1;" parent="RQZGOSd0Mo2bAITl2LVJ-5" vertex="1">
          <mxGeometry y="120" width="696" height="64" as="geometry" />
        </mxCell>
        <mxCell id="RQZGOSd0Mo2bAITl2LVJ-9" value="public ResponseEntity&amp;lt;ClienteResponseDTO&amp;gt; EditarCliente(Long id,&amp;nbsp;&lt;span style=&quot;background-color: initial;&quot;&gt;String sobrenome,&lt;/span&gt;&lt;span style=&quot;background-color: initial;&quot;&gt;LocalDate dataNascimento,&lt;/span&gt;&lt;div&gt;&lt;span style=&quot;background-color: initial;&quot;&gt;&amp;nbsp; &amp;nbsp;&lt;span style=&quot;white-space: pre;&quot;&gt;&#x9;&lt;/span&gt;&lt;span style=&quot;white-space: pre;&quot;&gt;&#x9;&lt;/span&gt;&lt;span style=&quot;white-space: pre;&quot;&gt;&#x9;&lt;/span&gt;&lt;span style=&quot;white-space: pre;&quot;&gt;&#x9;&lt;/span&gt;&lt;span style=&quot;white-space: pre;&quot;&gt;&#x9;&lt;/span&gt;&lt;span style=&quot;white-space: pre;&quot;&gt;&#x9;&lt;/span&gt;&lt;span style=&quot;white-space: pre;&quot;&gt;&#x9;&lt;/span&gt;&lt;span style=&quot;white-space: pre;&quot;&gt;&#x9;&lt;/span&gt;&lt;span style=&quot;white-space: pre;&quot;&gt;&#x9;&lt;/span&gt;&amp;nbsp; &amp;nbsp;String logradouro,&lt;/span&gt;&lt;span style=&quot;background-color: initial;&quot;&gt;&amp;nbsp;String numero,&lt;/span&gt;&lt;span style=&quot;background-color: initial;&quot;&gt;String bairro,&lt;/span&gt;&lt;span style=&quot;background-color: initial;&quot;&gt;String referencia,&lt;/span&gt;&lt;span style=&quot;background-color: initial;&quot;&gt;&amp;nbsp;String cep,&lt;/span&gt;&lt;/div&gt;&lt;div&gt;&lt;span style=&quot;background-color: initial;&quot;&gt;&lt;span style=&quot;white-space: pre;&quot;&gt;&#x9;&lt;span style=&quot;white-space: pre;&quot;&gt;&#x9;&lt;/span&gt;&lt;span style=&quot;white-space: pre;&quot;&gt;&#x9;&lt;/span&gt;&lt;span style=&quot;white-space: pre;&quot;&gt;&#x9;&lt;/span&gt;&lt;span style=&quot;white-space: pre;&quot;&gt;&#x9;&lt;/span&gt;&lt;span style=&quot;white-space: pre;&quot;&gt;&#x9;&lt;/span&gt;&lt;span style=&quot;white-space: pre;&quot;&gt;&#x9;&lt;/span&gt;&lt;span style=&quot;white-space: pre;&quot;&gt;&#x9;&lt;/span&gt;&lt;span style=&quot;white-space: pre;&quot;&gt;&#x9;&lt;/span&gt;   &lt;/span&gt;Long prefixo,&lt;/span&gt;&lt;span style=&quot;background-color: initial;&quot;&gt;Long telefone,&lt;/span&gt;&lt;span style=&quot;background-color: initial;&quot;&gt;String email,&lt;/span&gt;&lt;span style=&quot;background-color: initial;&quot;&gt;&amp;nbsp;Double score)&lt;/span&gt;&lt;/div&gt;" style="text;strokeColor=none;fillColor=none;align=left;verticalAlign=middle;spacingLeft=4;spacingRight=4;overflow=hidden;points=[[0,0.5],[1,0.5]];portConstraint=eastwest;rotatable=0;whiteSpace=wrap;html=1;" parent="RQZGOSd0Mo2bAITl2LVJ-5" vertex="1">
          <mxGeometry y="184" width="696" height="50" as="geometry" />
        </mxCell>
        <mxCell id="RQZGOSd0Mo2bAITl2LVJ-11" value="&lt;font color=&quot;#ffffff&quot;&gt;public void DeletarClientesPorId(Long id)&lt;/font&gt;" style="text;strokeColor=none;fillColor=none;align=left;verticalAlign=middle;spacingLeft=4;spacingRight=4;overflow=hidden;points=[[0,0.5],[1,0.5]];portConstraint=eastwest;rotatable=0;whiteSpace=wrap;html=1;" parent="RQZGOSd0Mo2bAITl2LVJ-5" vertex="1">
          <mxGeometry y="234" width="696" height="30" as="geometry" />
        </mxCell>
        <mxCell id="RQZGOSd0Mo2bAITl2LVJ-12" value="" style="endArrow=classic;startArrow=classic;html=1;rounded=0;entryX=0.031;entryY=0.736;entryDx=0;entryDy=0;entryPerimeter=0;exitX=1;exitY=0.5;exitDx=0;exitDy=0;" parent="1" source="RQZGOSd0Mo2bAITl2LVJ-2" target="RQZGOSd0Mo2bAITl2LVJ-3" edge="1">
          <mxGeometry width="50" height="50" relative="1" as="geometry">
            <mxPoint x="392" y="177" as="sourcePoint" />
            <mxPoint x="442" y="127" as="targetPoint" />
          </mxGeometry>
        </mxCell>
        <mxCell id="RQZGOSd0Mo2bAITl2LVJ-13" value="Request" style="text;html=1;align=center;verticalAlign=middle;resizable=0;points=[];autosize=1;strokeColor=none;fillColor=none;" parent="1" vertex="1">
          <mxGeometry x="553" y="237" width="63" height="26" as="geometry" />
        </mxCell>
        <mxCell id="RQZGOSd0Mo2bAITl2LVJ-14" value="Response" style="text;html=1;align=center;verticalAlign=middle;resizable=0;points=[];autosize=1;strokeColor=none;fillColor=none;" parent="1" vertex="1">
          <mxGeometry x="267" y="257" width="72" height="26" as="geometry" />
        </mxCell>
        <mxCell id="RQZGOSd0Mo2bAITl2LVJ-15" style="edgeStyle=orthogonalEdgeStyle;rounded=0;orthogonalLoop=1;jettySize=auto;html=1;exitX=0;exitY=0.5;exitDx=0;exitDy=0;entryX=0;entryY=0.5;entryDx=0;entryDy=0;" parent="1" source="RQZGOSd0Mo2bAITl2LVJ-6" target="RQZGOSd0Mo2bAITl2LVJ-2" edge="1">
          <mxGeometry relative="1" as="geometry" />
        </mxCell>
        <mxCell id="RQZGOSd0Mo2bAITl2LVJ-16" style="edgeStyle=orthogonalEdgeStyle;rounded=0;orthogonalLoop=1;jettySize=auto;html=1;exitX=0;exitY=0.5;exitDx=0;exitDy=0;entryX=0;entryY=0.5;entryDx=0;entryDy=0;" parent="1" source="RQZGOSd0Mo2bAITl2LVJ-8" target="RQZGOSd0Mo2bAITl2LVJ-2" edge="1">
          <mxGeometry relative="1" as="geometry" />
        </mxCell>
        <mxCell id="RQZGOSd0Mo2bAITl2LVJ-17" style="edgeStyle=orthogonalEdgeStyle;rounded=0;orthogonalLoop=1;jettySize=auto;html=1;exitX=0;exitY=0.5;exitDx=0;exitDy=0;entryX=0;entryY=0.5;entryDx=0;entryDy=0;" parent="1" source="RQZGOSd0Mo2bAITl2LVJ-9" target="RQZGOSd0Mo2bAITl2LVJ-2" edge="1">
          <mxGeometry relative="1" as="geometry" />
        </mxCell>
        <mxCell id="RQZGOSd0Mo2bAITl2LVJ-20" value="" style="endArrow=classic;startArrow=classic;html=1;rounded=0;entryX=0.5;entryY=1;entryDx=0;entryDy=0;exitX=0.5;exitY=0;exitDx=0;exitDy=0;" parent="1" source="RQZGOSd0Mo2bAITl2LVJ-2" edge="1">
          <mxGeometry width="50" height="50" relative="1" as="geometry">
            <mxPoint x="185" y="206" as="sourcePoint" />
            <mxPoint x="229" y="115" as="targetPoint" />
          </mxGeometry>
        </mxCell>
        <mxCell id="RQZGOSd0Mo2bAITl2LVJ-21" value="Response" style="text;html=1;align=center;verticalAlign=middle;resizable=0;points=[];autosize=1;strokeColor=none;fillColor=none;" parent="1" vertex="1">
          <mxGeometry x="225" y="117" width="72" height="26" as="geometry" />
        </mxCell>
        <mxCell id="RQZGOSd0Mo2bAITl2LVJ-22" value="Request" style="text;html=1;align=center;verticalAlign=middle;resizable=0;points=[];autosize=1;strokeColor=none;fillColor=none;" parent="1" vertex="1">
          <mxGeometry x="167" y="194" width="63" height="26" as="geometry" />
        </mxCell>
        <mxCell id="RQZGOSd0Mo2bAITl2LVJ-23" value="Controller" style="rounded=0;whiteSpace=wrap;html=1;strokeColor=#FFFFFF;fontColor=#FFFFFF;fillColor=#182E3E;" parent="1" vertex="1">
          <mxGeometry x="169" y="54" width="120" height="60" as="geometry" />
        </mxCell>
        <mxCell id="HNvX0eSPs19krklYhMyc-1" value="&lt;h1 style=&quot;margin-top: 0px;&quot;&gt;Diagrama de Funcionamento Service&lt;/h1&gt;" style="text;html=1;whiteSpace=wrap;overflow=hidden;rounded=0;" parent="1" vertex="1">
          <mxGeometry x="351" y="106" width="471" height="55" as="geometry" />
        </mxCell>
        <mxCell id="HNvX0eSPs19krklYhMyc-5" value="" style="endArrow=none;html=1;rounded=0;" parent="1" edge="1">
          <mxGeometry width="50" height="50" relative="1" as="geometry">
            <mxPoint x="96" y="422" as="sourcePoint" />
            <mxPoint x="117" y="422" as="targetPoint" />
          </mxGeometry>
        </mxCell>
        <mxCell id="HNvX0eSPs19krklYhMyc-6" value="" style="endArrow=none;html=1;rounded=0;" parent="1" edge="1">
          <mxGeometry width="50" height="50" relative="1" as="geometry">
            <mxPoint x="96" y="452" as="sourcePoint" />
            <mxPoint x="117" y="452" as="targetPoint" />
          </mxGeometry>
        </mxCell>
        <mxCell id="IQena9B2l2TPl_jTyljN-1" value="" style="group" parent="1" vertex="1" connectable="0">
          <mxGeometry x="338" y="28" width="115" height="83" as="geometry" />
        </mxCell>
        <mxCell id="IQena9B2l2TPl_jTyljN-2" value="" style="image;sketch=0;aspect=fixed;html=1;points=[];align=center;fontSize=12;image=img/lib/mscae/Storage_sync_service.svg;" parent="IQena9B2l2TPl_jTyljN-1" vertex="1">
          <mxGeometry x="20.01851851851852" width="64.64423076923077" height="64.64423076923077" as="geometry" />
        </mxCell>
        <mxCell id="IQena9B2l2TPl_jTyljN-3" value="CLIENTE_SERVICE" style="text;html=1;align=center;verticalAlign=middle;resizable=0;points=[];autosize=1;strokeColor=none;fillColor=none;" parent="IQena9B2l2TPl_jTyljN-1" vertex="1">
          <mxGeometry x="5.962962962962963" y="62.25000000000001" width="128" height="26" as="geometry" />
        </mxCell>
      </root>
    </mxGraphModel>
  </diagram>
  <diagram id="VwNFrbpbq8pqzfTLSZS0" name="Diagrama de Client_Service Nível 3">
    <mxGraphModel dx="880" dy="532" grid="0" gridSize="10" guides="1" tooltips="1" connect="1" arrows="1" fold="1" page="1" pageScale="1" pageWidth="827" pageHeight="1169" math="0" shadow="0">
      <root>
        <mxCell id="0" />
        <mxCell id="1" parent="0" />
        <mxCell id="5Nt4gYXFLcJ5yyW4Ls4f-1" value="&lt;h1 style=&quot;margin-top: 0px;&quot;&gt;Diagrama de Entidade e Relacionamento&lt;/h1&gt;" style="text;html=1;whiteSpace=wrap;overflow=hidden;rounded=0;" parent="1" vertex="1">
          <mxGeometry x="198" y="113" width="471" height="55" as="geometry" />
        </mxCell>
        <mxCell id="R3-vj_6EawbANfOUTxrK-1" value="" style="group" parent="1" vertex="1" connectable="0">
          <mxGeometry x="182" y="22" width="131" height="104" as="geometry" />
        </mxCell>
        <mxCell id="R3-vj_6EawbANfOUTxrK-2" value="" style="image;sketch=0;aspect=fixed;html=1;points=[];align=center;fontSize=12;image=img/lib/mscae/Storage_sync_service.svg;" parent="R3-vj_6EawbANfOUTxrK-1" vertex="1">
          <mxGeometry x="23.5" width="81" height="81" as="geometry" />
        </mxCell>
        <mxCell id="R3-vj_6EawbANfOUTxrK-3" value="CLIENT_SERVICE" style="text;html=1;align=center;verticalAlign=middle;resizable=0;points=[];autosize=1;strokeColor=none;fillColor=none;" parent="R3-vj_6EawbANfOUTxrK-1" vertex="1">
          <mxGeometry x="11" y="78" width="120" height="26" as="geometry" />
        </mxCell>
        <mxCell id="R3-vj_6EawbANfOUTxrK-4" value="CLiente" style="swimlane;fontStyle=0;childLayout=stackLayout;horizontal=1;startSize=30;horizontalStack=0;resizeParent=1;resizeParentMax=0;resizeLast=0;collapsible=1;marginBottom=0;whiteSpace=wrap;html=1;" parent="1" vertex="1">
          <mxGeometry x="316" y="173" width="196" height="270" as="geometry" />
        </mxCell>
        <mxCell id="R3-vj_6EawbANfOUTxrK-5" value="Long id" style="text;strokeColor=none;fillColor=none;align=left;verticalAlign=middle;spacingLeft=4;spacingRight=4;overflow=hidden;points=[[0,0.5],[1,0.5]];portConstraint=eastwest;rotatable=0;whiteSpace=wrap;html=1;" parent="R3-vj_6EawbANfOUTxrK-4" vertex="1">
          <mxGeometry y="30" width="196" height="30" as="geometry" />
        </mxCell>
        <mxCell id="R3-vj_6EawbANfOUTxrK-6" value="String nome" style="text;strokeColor=none;fillColor=none;align=left;verticalAlign=middle;spacingLeft=4;spacingRight=4;overflow=hidden;points=[[0,0.5],[1,0.5]];portConstraint=eastwest;rotatable=0;whiteSpace=wrap;html=1;" parent="R3-vj_6EawbANfOUTxrK-4" vertex="1">
          <mxGeometry y="60" width="196" height="30" as="geometry" />
        </mxCell>
        <mxCell id="R3-vj_6EawbANfOUTxrK-7" value="String sobrenome" style="text;strokeColor=none;fillColor=none;align=left;verticalAlign=middle;spacingLeft=4;spacingRight=4;overflow=hidden;points=[[0,0.5],[1,0.5]];portConstraint=eastwest;rotatable=0;whiteSpace=wrap;html=1;" parent="R3-vj_6EawbANfOUTxrK-4" vertex="1">
          <mxGeometry y="90" width="196" height="30" as="geometry" />
        </mxCell>
        <mxCell id="oef0c_u90gJqjF3vif8e-1" value="Long documento" style="text;strokeColor=none;fillColor=none;align=left;verticalAlign=middle;spacingLeft=4;spacingRight=4;overflow=hidden;points=[[0,0.5],[1,0.5]];portConstraint=eastwest;rotatable=0;whiteSpace=wrap;html=1;" parent="R3-vj_6EawbANfOUTxrK-4" vertex="1">
          <mxGeometry y="120" width="196" height="30" as="geometry" />
        </mxCell>
        <mxCell id="R3-vj_6EawbANfOUTxrK-8" value="LocalDate dataNascimento" style="text;strokeColor=none;fillColor=none;align=left;verticalAlign=middle;spacingLeft=4;spacingRight=4;overflow=hidden;points=[[0,0.5],[1,0.5]];portConstraint=eastwest;rotatable=0;whiteSpace=wrap;html=1;" parent="R3-vj_6EawbANfOUTxrK-4" vertex="1">
          <mxGeometry y="150" width="196" height="30" as="geometry" />
        </mxCell>
        <mxCell id="R3-vj_6EawbANfOUTxrK-9" value="Endereco endereco" style="text;strokeColor=none;fillColor=none;align=left;verticalAlign=middle;spacingLeft=4;spacingRight=4;overflow=hidden;points=[[0,0.5],[1,0.5]];portConstraint=eastwest;rotatable=0;whiteSpace=wrap;html=1;" parent="R3-vj_6EawbANfOUTxrK-4" vertex="1">
          <mxGeometry y="180" width="196" height="30" as="geometry" />
        </mxCell>
        <mxCell id="R3-vj_6EawbANfOUTxrK-10" value="Contato contato" style="text;strokeColor=none;fillColor=none;align=left;verticalAlign=middle;spacingLeft=4;spacingRight=4;overflow=hidden;points=[[0,0.5],[1,0.5]];portConstraint=eastwest;rotatable=0;whiteSpace=wrap;html=1;" parent="R3-vj_6EawbANfOUTxrK-4" vertex="1">
          <mxGeometry y="210" width="196" height="30" as="geometry" />
        </mxCell>
        <mxCell id="R3-vj_6EawbANfOUTxrK-12" value="LocalDateTime timeStamp" style="text;strokeColor=none;fillColor=none;align=left;verticalAlign=middle;spacingLeft=4;spacingRight=4;overflow=hidden;points=[[0,0.5],[1,0.5]];portConstraint=eastwest;rotatable=0;whiteSpace=wrap;html=1;" parent="R3-vj_6EawbANfOUTxrK-4" vertex="1">
          <mxGeometry y="240" width="196" height="30" as="geometry" />
        </mxCell>
        <mxCell id="R3-vj_6EawbANfOUTxrK-13" value="Endereco" style="swimlane;fontStyle=0;childLayout=stackLayout;horizontal=1;startSize=30;horizontalStack=0;resizeParent=1;resizeParentMax=0;resizeLast=0;collapsible=1;marginBottom=0;whiteSpace=wrap;html=1;" parent="1" vertex="1">
          <mxGeometry x="599" y="499" width="196" height="300" as="geometry" />
        </mxCell>
        <mxCell id="R3-vj_6EawbANfOUTxrK-14" value="Long id" style="text;strokeColor=none;fillColor=none;align=left;verticalAlign=middle;spacingLeft=4;spacingRight=4;overflow=hidden;points=[[0,0.5],[1,0.5]];portConstraint=eastwest;rotatable=0;whiteSpace=wrap;html=1;" parent="R3-vj_6EawbANfOUTxrK-13" vertex="1">
          <mxGeometry y="30" width="196" height="30" as="geometry" />
        </mxCell>
        <mxCell id="R3-vj_6EawbANfOUTxrK-15" value="String logradouro" style="text;strokeColor=none;fillColor=none;align=left;verticalAlign=middle;spacingLeft=4;spacingRight=4;overflow=hidden;points=[[0,0.5],[1,0.5]];portConstraint=eastwest;rotatable=0;whiteSpace=wrap;html=1;" parent="R3-vj_6EawbANfOUTxrK-13" vertex="1">
          <mxGeometry y="60" width="196" height="30" as="geometry" />
        </mxCell>
        <mxCell id="R3-vj_6EawbANfOUTxrK-16" value="String numero" style="text;strokeColor=none;fillColor=none;align=left;verticalAlign=middle;spacingLeft=4;spacingRight=4;overflow=hidden;points=[[0,0.5],[1,0.5]];portConstraint=eastwest;rotatable=0;whiteSpace=wrap;html=1;" parent="R3-vj_6EawbANfOUTxrK-13" vertex="1">
          <mxGeometry y="90" width="196" height="30" as="geometry" />
        </mxCell>
        <mxCell id="R3-vj_6EawbANfOUTxrK-17" value="String bairro" style="text;strokeColor=none;fillColor=none;align=left;verticalAlign=middle;spacingLeft=4;spacingRight=4;overflow=hidden;points=[[0,0.5],[1,0.5]];portConstraint=eastwest;rotatable=0;whiteSpace=wrap;html=1;" parent="R3-vj_6EawbANfOUTxrK-13" vertex="1">
          <mxGeometry y="120" width="196" height="30" as="geometry" />
        </mxCell>
        <mxCell id="R3-vj_6EawbANfOUTxrK-18" value="String referencia" style="text;strokeColor=none;fillColor=none;align=left;verticalAlign=middle;spacingLeft=4;spacingRight=4;overflow=hidden;points=[[0,0.5],[1,0.5]];portConstraint=eastwest;rotatable=0;whiteSpace=wrap;html=1;" parent="R3-vj_6EawbANfOUTxrK-13" vertex="1">
          <mxGeometry y="150" width="196" height="30" as="geometry" />
        </mxCell>
        <mxCell id="R3-vj_6EawbANfOUTxrK-19" value="Long cep" style="text;strokeColor=none;fillColor=none;align=left;verticalAlign=middle;spacingLeft=4;spacingRight=4;overflow=hidden;points=[[0,0.5],[1,0.5]];portConstraint=eastwest;rotatable=0;whiteSpace=wrap;html=1;" parent="R3-vj_6EawbANfOUTxrK-13" vertex="1">
          <mxGeometry y="180" width="196" height="30" as="geometry" />
        </mxCell>
        <mxCell id="R3-vj_6EawbANfOUTxrK-20" value="String localidade" style="text;strokeColor=none;fillColor=none;align=left;verticalAlign=middle;spacingLeft=4;spacingRight=4;overflow=hidden;points=[[0,0.5],[1,0.5]];portConstraint=eastwest;rotatable=0;whiteSpace=wrap;html=1;" parent="R3-vj_6EawbANfOUTxrK-13" vertex="1">
          <mxGeometry y="210" width="196" height="30" as="geometry" />
        </mxCell>
        <mxCell id="R3-vj_6EawbANfOUTxrK-21" value="String uf" style="text;strokeColor=none;fillColor=none;align=left;verticalAlign=middle;spacingLeft=4;spacingRight=4;overflow=hidden;points=[[0,0.5],[1,0.5]];portConstraint=eastwest;rotatable=0;whiteSpace=wrap;html=1;" parent="R3-vj_6EawbANfOUTxrK-13" vertex="1">
          <mxGeometry y="240" width="196" height="30" as="geometry" />
        </mxCell>
        <mxCell id="R3-vj_6EawbANfOUTxrK-22" value="LocalDateTime timeStamp" style="text;strokeColor=none;fillColor=none;align=left;verticalAlign=middle;spacingLeft=4;spacingRight=4;overflow=hidden;points=[[0,0.5],[1,0.5]];portConstraint=eastwest;rotatable=0;whiteSpace=wrap;html=1;" parent="R3-vj_6EawbANfOUTxrK-13" vertex="1">
          <mxGeometry y="270" width="196" height="30" as="geometry" />
        </mxCell>
        <mxCell id="R3-vj_6EawbANfOUTxrK-23" value="Contato" style="swimlane;fontStyle=0;childLayout=stackLayout;horizontal=1;startSize=30;horizontalStack=0;resizeParent=1;resizeParentMax=0;resizeLast=0;collapsible=1;marginBottom=0;whiteSpace=wrap;html=1;" parent="1" vertex="1">
          <mxGeometry x="44" y="504" width="196" height="180" as="geometry" />
        </mxCell>
        <mxCell id="R3-vj_6EawbANfOUTxrK-24" value="Long id" style="text;strokeColor=none;fillColor=none;align=left;verticalAlign=middle;spacingLeft=4;spacingRight=4;overflow=hidden;points=[[0,0.5],[1,0.5]];portConstraint=eastwest;rotatable=0;whiteSpace=wrap;html=1;" parent="R3-vj_6EawbANfOUTxrK-23" vertex="1">
          <mxGeometry y="30" width="196" height="30" as="geometry" />
        </mxCell>
        <mxCell id="R3-vj_6EawbANfOUTxrK-25" value="String email" style="text;strokeColor=none;fillColor=none;align=left;verticalAlign=middle;spacingLeft=4;spacingRight=4;overflow=hidden;points=[[0,0.5],[1,0.5]];portConstraint=eastwest;rotatable=0;whiteSpace=wrap;html=1;" parent="R3-vj_6EawbANfOUTxrK-23" vertex="1">
          <mxGeometry y="60" width="196" height="30" as="geometry" />
        </mxCell>
        <mxCell id="R3-vj_6EawbANfOUTxrK-26" value="Long prefixo" style="text;strokeColor=none;fillColor=none;align=left;verticalAlign=middle;spacingLeft=4;spacingRight=4;overflow=hidden;points=[[0,0.5],[1,0.5]];portConstraint=eastwest;rotatable=0;whiteSpace=wrap;html=1;" parent="R3-vj_6EawbANfOUTxrK-23" vertex="1">
          <mxGeometry y="90" width="196" height="30" as="geometry" />
        </mxCell>
        <mxCell id="R3-vj_6EawbANfOUTxrK-27" value="Long telefone" style="text;strokeColor=none;fillColor=none;align=left;verticalAlign=middle;spacingLeft=4;spacingRight=4;overflow=hidden;points=[[0,0.5],[1,0.5]];portConstraint=eastwest;rotatable=0;whiteSpace=wrap;html=1;" parent="R3-vj_6EawbANfOUTxrK-23" vertex="1">
          <mxGeometry y="120" width="196" height="30" as="geometry" />
        </mxCell>
        <mxCell id="R3-vj_6EawbANfOUTxrK-28" value="LocalDateTime timeStamp" style="text;strokeColor=none;fillColor=none;align=left;verticalAlign=middle;spacingLeft=4;spacingRight=4;overflow=hidden;points=[[0,0.5],[1,0.5]];portConstraint=eastwest;rotatable=0;whiteSpace=wrap;html=1;" parent="R3-vj_6EawbANfOUTxrK-23" vertex="1">
          <mxGeometry y="150" width="196" height="30" as="geometry" />
        </mxCell>
        <mxCell id="R3-vj_6EawbANfOUTxrK-29" style="edgeStyle=orthogonalEdgeStyle;rounded=0;orthogonalLoop=1;jettySize=auto;html=1;exitX=1;exitY=0.5;exitDx=0;exitDy=0;entryX=0;entryY=0.5;entryDx=0;entryDy=0;" parent="1" source="R3-vj_6EawbANfOUTxrK-9" target="R3-vj_6EawbANfOUTxrK-14" edge="1">
          <mxGeometry relative="1" as="geometry" />
        </mxCell>
        <mxCell id="R3-vj_6EawbANfOUTxrK-30" style="edgeStyle=orthogonalEdgeStyle;rounded=0;orthogonalLoop=1;jettySize=auto;html=1;exitX=0;exitY=0.5;exitDx=0;exitDy=0;entryX=1;entryY=0.5;entryDx=0;entryDy=0;" parent="1" source="R3-vj_6EawbANfOUTxrK-10" target="R3-vj_6EawbANfOUTxrK-24" edge="1">
          <mxGeometry relative="1" as="geometry" />
        </mxCell>
        <mxCell id="R3-vj_6EawbANfOUTxrK-31" value="1" style="text;html=1;align=center;verticalAlign=middle;resizable=0;points=[];autosize=1;strokeColor=none;fillColor=none;" parent="1" vertex="1">
          <mxGeometry x="295" y="379" width="25" height="26" as="geometry" />
        </mxCell>
        <mxCell id="R3-vj_6EawbANfOUTxrK-32" value="1" style="text;html=1;align=center;verticalAlign=middle;resizable=0;points=[];autosize=1;strokeColor=none;fillColor=none;" parent="1" vertex="1">
          <mxGeometry x="235" y="522" width="25" height="26" as="geometry" />
        </mxCell>
        <mxCell id="R3-vj_6EawbANfOUTxrK-33" value="1" style="text;html=1;align=center;verticalAlign=middle;resizable=0;points=[];autosize=1;strokeColor=none;fillColor=none;" parent="1" vertex="1">
          <mxGeometry x="506" y="347" width="25" height="26" as="geometry" />
        </mxCell>
        <mxCell id="R3-vj_6EawbANfOUTxrK-34" value="1" style="text;html=1;align=center;verticalAlign=middle;resizable=0;points=[];autosize=1;strokeColor=none;fillColor=none;" parent="1" vertex="1">
          <mxGeometry x="575" y="521" width="25" height="26" as="geometry" />
        </mxCell>
      </root>
    </mxGraphModel>
  </diagram>
  <diagram id="OeFi_Z01uYhu-9qagGgF" name="Diagrama TRANSACAO_SERVICE Nível 2">
    <mxGraphModel dx="880" dy="532" grid="0" gridSize="10" guides="1" tooltips="1" connect="1" arrows="1" fold="1" page="1" pageScale="1" pageWidth="827" pageHeight="1169" math="0" shadow="0">
      <root>
        <mxCell id="0" />
        <mxCell id="1" parent="0" />
        <mxCell id="MyuBjqDlUE2diO9yDe-E-1" value="&lt;h1 style=&quot;margin-top: 0px;&quot;&gt;Diagrama de Funcionamento Service&lt;/h1&gt;" style="text;html=1;whiteSpace=wrap;overflow=hidden;rounded=0;" parent="1" vertex="1">
          <mxGeometry x="257" y="117" width="471" height="55" as="geometry" />
        </mxCell>
        <mxCell id="aw3KQr_AadzD7bDG0_q6-1" value="" style="group" parent="1" vertex="1" connectable="0">
          <mxGeometry x="326" y="18" width="151" height="104" as="geometry" />
        </mxCell>
        <mxCell id="aw3KQr_AadzD7bDG0_q6-2" value="" style="image;sketch=0;aspect=fixed;html=1;points=[];align=center;fontSize=12;image=img/lib/mscae/Storage_sync_service.svg;" parent="aw3KQr_AadzD7bDG0_q6-1" vertex="1">
          <mxGeometry x="23.5" width="81" height="81" as="geometry" />
        </mxCell>
        <mxCell id="aw3KQr_AadzD7bDG0_q6-3" value="TRANSACAO_SERVICE" style="text;html=1;align=center;verticalAlign=middle;resizable=0;points=[];autosize=1;strokeColor=none;fillColor=none;" parent="aw3KQr_AadzD7bDG0_q6-1" vertex="1">
          <mxGeometry x="-12" y="78" width="152" height="26" as="geometry" />
        </mxCell>
        <mxCell id="Isb6xXeQhzwNGaUrVmK--5" style="edgeStyle=orthogonalEdgeStyle;rounded=0;orthogonalLoop=1;jettySize=auto;html=1;exitX=1;exitY=0.5;exitDx=0;exitDy=0;entryX=0;entryY=0;entryDx=0;entryDy=0;" parent="1" source="sEbrxg4Eq53hsX1I3Am6-1" target="sEbrxg4Eq53hsX1I3Am6-7" edge="1">
          <mxGeometry relative="1" as="geometry" />
        </mxCell>
        <mxCell id="sEbrxg4Eq53hsX1I3Am6-1" value="service" style="rhombus;whiteSpace=wrap;html=1;strokeColor=#FFFFFF;fontColor=#FFFFFF;fillColor=#182E3E;" parent="1" vertex="1">
          <mxGeometry x="56" y="287" width="80" height="80" as="geometry" />
        </mxCell>
        <mxCell id="sEbrxg4Eq53hsX1I3Am6-2" value="Response" style="text;html=1;align=center;verticalAlign=middle;resizable=0;points=[];autosize=1;strokeColor=none;fillColor=none;" parent="1" vertex="1">
          <mxGeometry x="132" y="306" width="72" height="26" as="geometry" />
        </mxCell>
        <mxCell id="sEbrxg4Eq53hsX1I3Am6-3" value="" style="endArrow=classic;startArrow=classic;html=1;rounded=0;entryX=0.5;entryY=1;entryDx=0;entryDy=0;exitX=0.5;exitY=0;exitDx=0;exitDy=0;" parent="1" source="sEbrxg4Eq53hsX1I3Am6-1" edge="1">
          <mxGeometry width="50" height="50" relative="1" as="geometry">
            <mxPoint x="52" y="274" as="sourcePoint" />
            <mxPoint x="96" y="183" as="targetPoint" />
          </mxGeometry>
        </mxCell>
        <mxCell id="sEbrxg4Eq53hsX1I3Am6-4" value="Response" style="text;html=1;align=center;verticalAlign=middle;resizable=0;points=[];autosize=1;strokeColor=none;fillColor=none;" parent="1" vertex="1">
          <mxGeometry x="92" y="185" width="72" height="26" as="geometry" />
        </mxCell>
        <mxCell id="sEbrxg4Eq53hsX1I3Am6-5" value="Request" style="text;html=1;align=center;verticalAlign=middle;resizable=0;points=[];autosize=1;strokeColor=none;fillColor=none;" parent="1" vertex="1">
          <mxGeometry x="34" y="262" width="63" height="26" as="geometry" />
        </mxCell>
        <mxCell id="sEbrxg4Eq53hsX1I3Am6-6" value="Controller" style="rounded=0;whiteSpace=wrap;html=1;strokeColor=#FFFFFF;fontColor=#FFFFFF;fillColor=#182E3E;" parent="1" vertex="1">
          <mxGeometry x="36" y="122" width="120" height="60" as="geometry" />
        </mxCell>
        <mxCell id="sEbrxg4Eq53hsX1I3Am6-7" value="Métodos" style="swimlane;fontStyle=0;childLayout=stackLayout;horizontal=1;startSize=30;horizontalStack=0;resizeParent=1;resizeParentMax=0;resizeLast=0;collapsible=1;marginBottom=0;whiteSpace=wrap;html=1;" parent="1" vertex="1">
          <mxGeometry x="332" y="205" width="400" height="180" as="geometry" />
        </mxCell>
        <mxCell id="sEbrxg4Eq53hsX1I3Am6-8" value="NovoSaque(String acount, String senhaAutenticacao)" style="text;strokeColor=none;fillColor=none;align=left;verticalAlign=middle;spacingLeft=4;spacingRight=4;overflow=hidden;points=[[0,0.5],[1,0.5]];portConstraint=eastwest;rotatable=0;whiteSpace=wrap;html=1;" parent="sEbrxg4Eq53hsX1I3Am6-7" vertex="1">
          <mxGeometry y="30" width="400" height="30" as="geometry" />
        </mxCell>
        <mxCell id="sEbrxg4Eq53hsX1I3Am6-9" value="NovoDeposito(String acountdePagador, String senhaAutenticacao, String acountBeneficiario, Double valor" style="text;strokeColor=none;fillColor=none;align=left;verticalAlign=middle;spacingLeft=4;spacingRight=4;overflow=hidden;points=[[0,0.5],[1,0.5]];portConstraint=eastwest;rotatable=0;whiteSpace=wrap;html=1;" parent="sEbrxg4Eq53hsX1I3Am6-7" vertex="1">
          <mxGeometry y="60" width="400" height="30" as="geometry" />
        </mxCell>
        <mxCell id="f5ZVch-3xQ29u481nUPC-1" value="&lt;div style=&quot;line-height: 19px; white-space: pre;&quot;&gt;&lt;font face=&quot;Helvetica&quot; style=&quot;color: rgb(0, 0, 0);&quot;&gt;FinalizarTransacaoSaque(AuthRequest authRequest)&lt;/font&gt;&lt;/div&gt;" style="text;strokeColor=none;fillColor=none;align=left;verticalAlign=middle;spacingLeft=4;spacingRight=4;overflow=hidden;points=[[0,0.5],[1,0.5]];portConstraint=eastwest;rotatable=0;whiteSpace=wrap;html=1;" parent="sEbrxg4Eq53hsX1I3Am6-7" vertex="1">
          <mxGeometry y="90" width="400" height="30" as="geometry" />
        </mxCell>
        <mxCell id="jSn6nohIFo67ZWAiOYqX-3" value="&lt;div style=&quot;font-size: 14px; line-height: 19px; white-space: pre;&quot;&gt;&lt;font face=&quot;Helvetica&quot;&gt;&lt;span style=&quot;font-family: Consolas, &amp;quot;Courier New&amp;quot;, monospace;&quot;&gt;&lt;font style=&quot;color: rgb(0, 0, 0);&quot;&gt;FinalizarTransacaoDeposisito&lt;/font&gt;&lt;/span&gt;&lt;font style=&quot;color: rgb(0, 0, 0);&quot;&gt;(AuthRequest authRequest)&lt;/font&gt;&lt;/font&gt;&lt;/div&gt;" style="text;strokeColor=none;fillColor=none;align=left;verticalAlign=middle;spacingLeft=4;spacingRight=4;overflow=hidden;points=[[0,0.5],[1,0.5]];portConstraint=eastwest;rotatable=0;whiteSpace=wrap;html=1;" vertex="1" parent="sEbrxg4Eq53hsX1I3Am6-7">
          <mxGeometry y="120" width="400" height="30" as="geometry" />
        </mxCell>
        <mxCell id="jSn6nohIFo67ZWAiOYqX-4" value="&lt;div style=&quot;line-height: 19px; white-space: pre;&quot;&gt;&lt;font face=&quot;Helvetica&quot;&gt;&lt;span style=&quot;font-family: Consolas, &amp;quot;Courier New&amp;quot;, monospace;&quot;&gt;&lt;font style=&quot;color: rgb(0, 0, 0);&quot;&gt;FinalizarTransacaoDeposisito&lt;/font&gt;&lt;/span&gt;&lt;font style=&quot;color: rgb(0, 0, 0);&quot;&gt;(AuthRequest authRequest)&lt;/font&gt;&lt;/font&gt;&lt;/div&gt;" style="text;strokeColor=none;fillColor=none;align=left;verticalAlign=middle;spacingLeft=4;spacingRight=4;overflow=hidden;points=[[0,0.5],[1,0.5]];portConstraint=eastwest;rotatable=0;whiteSpace=wrap;html=1;" vertex="1" parent="sEbrxg4Eq53hsX1I3Am6-7">
          <mxGeometry y="150" width="400" height="30" as="geometry" />
        </mxCell>
        <mxCell id="gOdhJhfv2z8LSciFQF38-1" value="" style="group" parent="1" vertex="1" connectable="0">
          <mxGeometry x="23" y="450" width="118" height="79" as="geometry" />
        </mxCell>
        <mxCell id="gOdhJhfv2z8LSciFQF38-2" value="" style="image;sketch=0;aspect=fixed;html=1;points=[];align=center;fontSize=12;image=img/lib/mscae/Storage_sync_service.svg;" parent="gOdhJhfv2z8LSciFQF38-1" vertex="1">
          <mxGeometry x="18.364238410596027" width="61.52884615384615" height="61.52884615384615" as="geometry" />
        </mxCell>
        <mxCell id="gOdhJhfv2z8LSciFQF38-3" value="ACOUNT_SERVICE" style="text;html=1;align=center;verticalAlign=middle;resizable=0;points=[];autosize=1;strokeColor=none;fillColor=none;" parent="gOdhJhfv2z8LSciFQF38-1" vertex="1">
          <mxGeometry y="59.25" width="128" height="26" as="geometry" />
        </mxCell>
        <mxCell id="Isb6xXeQhzwNGaUrVmK--1" value="" style="group" parent="1" vertex="1" connectable="0">
          <mxGeometry x="530" y="696" width="104" height="96" as="geometry" />
        </mxCell>
        <mxCell id="Isb6xXeQhzwNGaUrVmK--2" value="" style="image;sketch=0;aspect=fixed;html=1;points=[];align=center;fontSize=12;image=img/lib/mscae/Azure_Database_for_PostgreSQL_servers.svg;" parent="Isb6xXeQhzwNGaUrVmK--1" vertex="1">
          <mxGeometry x="16" width="56.24" height="74" as="geometry" />
        </mxCell>
        <mxCell id="Isb6xXeQhzwNGaUrVmK--3" value="DB_BANCOFAKE" style="text;html=1;align=center;verticalAlign=middle;resizable=0;points=[];autosize=1;strokeColor=none;fillColor=none;" parent="Isb6xXeQhzwNGaUrVmK--1" vertex="1">
          <mxGeometry x="-11" y="70" width="115" height="26" as="geometry" />
        </mxCell>
        <mxCell id="Isb6xXeQhzwNGaUrVmK--6" style="edgeStyle=orthogonalEdgeStyle;rounded=0;orthogonalLoop=1;jettySize=auto;html=1;exitX=0;exitY=0.5;exitDx=0;exitDy=0;entryX=1.002;entryY=0.52;entryDx=0;entryDy=0;entryPerimeter=0;" parent="1" source="sEbrxg4Eq53hsX1I3Am6-8" target="gOdhJhfv2z8LSciFQF38-2" edge="1">
          <mxGeometry relative="1" as="geometry">
            <Array as="points">
              <mxPoint x="268" y="250" />
              <mxPoint x="268" y="482" />
            </Array>
          </mxGeometry>
        </mxCell>
        <mxCell id="CH8OIF5I5jhPfM1-rj9C-1" value="Request&lt;div&gt;BuscarAcountPorAcountNumber&lt;/div&gt;&lt;div&gt;SalvarAlteracao&lt;/div&gt;" style="text;html=1;align=center;verticalAlign=middle;resizable=0;points=[];autosize=1;strokeColor=none;fillColor=none;" parent="1" vertex="1">
          <mxGeometry x="84" y="416" width="191" height="55" as="geometry" />
        </mxCell>
        <mxCell id="CH8OIF5I5jhPfM1-rj9C-2" value="Response" style="text;html=1;align=center;verticalAlign=middle;resizable=0;points=[];autosize=1;strokeColor=none;fillColor=none;" parent="1" vertex="1">
          <mxGeometry x="262" y="223" width="72" height="26" as="geometry" />
        </mxCell>
        <mxCell id="vxptz_43fYxO6Jntvsq1-8" value="" style="endArrow=none;html=1;rounded=0;entryX=0;entryY=0.5;entryDx=0;entryDy=0;" parent="1" target="sEbrxg4Eq53hsX1I3Am6-9" edge="1">
          <mxGeometry width="50" height="50" relative="1" as="geometry">
            <mxPoint x="267" y="280" as="sourcePoint" />
            <mxPoint x="321" y="284" as="targetPoint" />
          </mxGeometry>
        </mxCell>
        <mxCell id="vxptz_43fYxO6Jntvsq1-9" value="" style="endArrow=none;html=1;rounded=0;exitX=1;exitY=0.5;exitDx=0;exitDy=0;" parent="1" source="sEbrxg4Eq53hsX1I3Am6-9" edge="1">
          <mxGeometry width="50" height="50" relative="1" as="geometry">
            <mxPoint x="552" y="385" as="sourcePoint" />
            <mxPoint x="724" y="280" as="targetPoint" />
          </mxGeometry>
        </mxCell>
        <mxCell id="DGbOl3s3XloJWcVNKiq_-1" value="Response" style="text;html=1;align=center;verticalAlign=middle;resizable=0;points=[];autosize=1;strokeColor=none;fillColor=none;" parent="1" vertex="1">
          <mxGeometry x="262" y="260" width="72" height="26" as="geometry" />
        </mxCell>
        <mxCell id="j0OJux7vWomz_X5NsEvM-2" value="Request" style="text;html=1;align=center;verticalAlign=middle;resizable=0;points=[];autosize=1;strokeColor=none;fillColor=none;" parent="1" vertex="1">
          <mxGeometry x="597" y="679" width="63" height="26" as="geometry" />
        </mxCell>
        <mxCell id="I6lTrd4jsiVomD65sDwT-3" value="" style="endArrow=classic;startArrow=classic;html=1;rounded=0;strokeColor=default;align=center;verticalAlign=middle;fontFamily=Helvetica;fontSize=11;fontColor=default;labelBackgroundColor=default;entryX=0.942;entryY=0.068;entryDx=0;entryDy=0;entryPerimeter=0;exitX=1;exitY=0;exitDx=0;exitDy=0;" parent="1" source="sEbrxg4Eq53hsX1I3Am6-7" target="Isb6xXeQhzwNGaUrVmK--2" edge="1">
          <mxGeometry width="50" height="50" relative="1" as="geometry">
            <mxPoint x="743" y="434" as="sourcePoint" />
            <mxPoint x="437" y="552" as="targetPoint" />
            <Array as="points">
              <mxPoint x="770" y="205" />
              <mxPoint x="770" y="700" />
            </Array>
          </mxGeometry>
        </mxCell>
        <mxCell id="jSn6nohIFo67ZWAiOYqX-7" value="Response" style="text;html=1;align=center;verticalAlign=middle;resizable=0;points=[];autosize=1;strokeColor=none;fillColor=none;" vertex="1" parent="1">
          <mxGeometry x="715" y="181" width="72" height="26" as="geometry" />
        </mxCell>
        <mxCell id="pBDsDn_PJhoFZ2KQnajV-1" value="" style="group" vertex="1" connectable="0" parent="1">
          <mxGeometry x="30" y="581" width="118" height="85.25" as="geometry" />
        </mxCell>
        <mxCell id="pBDsDn_PJhoFZ2KQnajV-2" value="" style="image;sketch=0;aspect=fixed;html=1;points=[];align=center;fontSize=12;image=img/lib/mscae/Storage_sync_service.svg;" vertex="1" parent="pBDsDn_PJhoFZ2KQnajV-1">
          <mxGeometry x="18.364238410596027" width="61.52884615384615" height="61.52884615384615" as="geometry" />
        </mxCell>
        <mxCell id="pBDsDn_PJhoFZ2KQnajV-3" value="JWT_SERVICE" style="text;html=1;align=center;verticalAlign=middle;resizable=0;points=[];autosize=1;strokeColor=none;fillColor=none;" vertex="1" parent="pBDsDn_PJhoFZ2KQnajV-1">
          <mxGeometry x="13" y="59.25" width="102" height="26" as="geometry" />
        </mxCell>
        <mxCell id="pBDsDn_PJhoFZ2KQnajV-4" value="" style="endArrow=classic;html=1;rounded=0;entryX=0.985;entryY=0.406;entryDx=0;entryDy=0;entryPerimeter=0;" edge="1" parent="1" target="pBDsDn_PJhoFZ2KQnajV-2">
          <mxGeometry width="50" height="50" relative="1" as="geometry">
            <mxPoint x="268" y="483" as="sourcePoint" />
            <mxPoint x="367" y="442" as="targetPoint" />
            <Array as="points">
              <mxPoint x="266" y="606" />
            </Array>
          </mxGeometry>
        </mxCell>
        <mxCell id="pBDsDn_PJhoFZ2KQnajV-5" value="Request&lt;div&gt;Login&lt;/div&gt;" style="text;html=1;align=center;verticalAlign=middle;resizable=0;points=[];autosize=1;strokeColor=none;fillColor=none;" vertex="1" parent="1">
          <mxGeometry x="116" y="561" width="63" height="41" as="geometry" />
        </mxCell>
      </root>
    </mxGraphModel>
  </diagram>
  <diagram id="JhJzb1EXCTWRR-KPdB2g" name="Diagrama TRANSACAO_SERVICE Nível 3">
    <mxGraphModel dx="880" dy="532" grid="0" gridSize="10" guides="1" tooltips="1" connect="1" arrows="1" fold="1" page="1" pageScale="1" pageWidth="827" pageHeight="1169" math="0" shadow="0">
      <root>
        <mxCell id="0" />
        <mxCell id="1" parent="0" />
        <mxCell id="S28CS5awoSu6ipvqZg5c-1" value="&lt;h1 style=&quot;margin-top: 0px;&quot;&gt;Diagrama de Entidade e Relacionamento&lt;/h1&gt;" style="text;html=1;whiteSpace=wrap;overflow=hidden;rounded=0;" parent="1" vertex="1">
          <mxGeometry x="326" y="117" width="471" height="55" as="geometry" />
        </mxCell>
        <mxCell id="S28CS5awoSu6ipvqZg5c-2" value="" style="group" parent="1" vertex="1" connectable="0">
          <mxGeometry x="326" y="18" width="151" height="104" as="geometry" />
        </mxCell>
        <mxCell id="S28CS5awoSu6ipvqZg5c-3" value="" style="image;sketch=0;aspect=fixed;html=1;points=[];align=center;fontSize=12;image=img/lib/mscae/Storage_sync_service.svg;" parent="S28CS5awoSu6ipvqZg5c-2" vertex="1">
          <mxGeometry x="23.5" width="81" height="81" as="geometry" />
        </mxCell>
        <mxCell id="S28CS5awoSu6ipvqZg5c-4" value="TRANSACAO_SERVICE" style="text;html=1;align=center;verticalAlign=middle;resizable=0;points=[];autosize=1;strokeColor=none;fillColor=none;" parent="S28CS5awoSu6ipvqZg5c-2" vertex="1">
          <mxGeometry x="-12" y="78" width="152" height="26" as="geometry" />
        </mxCell>
        <mxCell id="2iAwOod4hT-4nVREHmh0-1" value="Transacao" style="swimlane;fontStyle=0;childLayout=stackLayout;horizontal=1;startSize=30;horizontalStack=0;resizeParent=1;resizeParentMax=0;resizeLast=0;collapsible=1;marginBottom=0;whiteSpace=wrap;html=1;" parent="1" vertex="1">
          <mxGeometry x="88" y="235" width="274" height="330" as="geometry" />
        </mxCell>
        <mxCell id="2iAwOod4hT-4nVREHmh0-2" value="Long id" style="text;strokeColor=none;fillColor=none;align=left;verticalAlign=middle;spacingLeft=4;spacingRight=4;overflow=hidden;points=[[0,0.5],[1,0.5]];portConstraint=eastwest;rotatable=0;whiteSpace=wrap;html=1;" parent="2iAwOod4hT-4nVREHmh0-1" vertex="1">
          <mxGeometry y="30" width="274" height="30" as="geometry" />
        </mxCell>
        <mxCell id="2iAwOod4hT-4nVREHmh0-3" value="String AcountPagador" style="text;strokeColor=none;fillColor=none;align=left;verticalAlign=middle;spacingLeft=4;spacingRight=4;overflow=hidden;points=[[0,0.5],[1,0.5]];portConstraint=eastwest;rotatable=0;whiteSpace=wrap;html=1;" parent="2iAwOod4hT-4nVREHmh0-1" vertex="1">
          <mxGeometry y="60" width="274" height="30" as="geometry" />
        </mxCell>
        <mxCell id="C04bbdVRXLq1j2PE7OYp-1" value="String AcountBeneficiario" style="text;strokeColor=none;fillColor=none;align=left;verticalAlign=middle;spacingLeft=4;spacingRight=4;overflow=hidden;points=[[0,0.5],[1,0.5]];portConstraint=eastwest;rotatable=0;whiteSpace=wrap;html=1;" parent="2iAwOod4hT-4nVREHmh0-1" vertex="1">
          <mxGeometry y="90" width="274" height="30" as="geometry" />
        </mxCell>
        <mxCell id="2iAwOod4hT-4nVREHmh0-4" value="Double valor" style="text;strokeColor=none;fillColor=none;align=left;verticalAlign=middle;spacingLeft=4;spacingRight=4;overflow=hidden;points=[[0,0.5],[1,0.5]];portConstraint=eastwest;rotatable=0;whiteSpace=wrap;html=1;" parent="2iAwOod4hT-4nVREHmh0-1" vertex="1">
          <mxGeometry y="120" width="274" height="30" as="geometry" />
        </mxCell>
        <mxCell id="u_jNYAwjXv6GoyJvlskF-6" value="String codigo" style="text;strokeColor=none;fillColor=none;align=left;verticalAlign=middle;spacingLeft=4;spacingRight=4;overflow=hidden;points=[[0,0.5],[1,0.5]];portConstraint=eastwest;rotatable=0;whiteSpace=wrap;html=1;" parent="2iAwOod4hT-4nVREHmh0-1" vertex="1">
          <mxGeometry y="150" width="274" height="30" as="geometry" />
        </mxCell>
        <mxCell id="C04bbdVRXLq1j2PE7OYp-2" value="STATUSTRANSFERENCIA statusTranferencia" style="text;strokeColor=none;fillColor=none;align=left;verticalAlign=middle;spacingLeft=4;spacingRight=4;overflow=hidden;points=[[0,0.5],[1,0.5]];portConstraint=eastwest;rotatable=0;whiteSpace=wrap;html=1;" parent="2iAwOod4hT-4nVREHmh0-1" vertex="1">
          <mxGeometry y="180" width="274" height="30" as="geometry" />
        </mxCell>
        <mxCell id="u_jNYAwjXv6GoyJvlskF-5" value="TIPOTRANSACAO tipoTransacao" style="text;strokeColor=none;fillColor=none;align=left;verticalAlign=middle;spacingLeft=4;spacingRight=4;overflow=hidden;points=[[0,0.5],[1,0.5]];portConstraint=eastwest;rotatable=0;whiteSpace=wrap;html=1;" parent="2iAwOod4hT-4nVREHmh0-1" vertex="1">
          <mxGeometry y="210" width="274" height="30" as="geometry" />
        </mxCell>
        <mxCell id="C04bbdVRXLq1j2PE7OYp-3" value="LocalDateTime dataTransferencia" style="text;strokeColor=none;fillColor=none;align=left;verticalAlign=middle;spacingLeft=4;spacingRight=4;overflow=hidden;points=[[0,0.5],[1,0.5]];portConstraint=eastwest;rotatable=0;whiteSpace=wrap;html=1;" parent="2iAwOod4hT-4nVREHmh0-1" vertex="1">
          <mxGeometry y="240" width="274" height="30" as="geometry" />
        </mxCell>
        <mxCell id="C04bbdVRXLq1j2PE7OYp-5" value="LocalDateTime dataAutorizacao" style="text;strokeColor=none;fillColor=none;align=left;verticalAlign=middle;spacingLeft=4;spacingRight=4;overflow=hidden;points=[[0,0.5],[1,0.5]];portConstraint=eastwest;rotatable=0;whiteSpace=wrap;html=1;" parent="2iAwOod4hT-4nVREHmh0-1" vertex="1">
          <mxGeometry y="270" width="274" height="30" as="geometry" />
        </mxCell>
        <mxCell id="C04bbdVRXLq1j2PE7OYp-4" value="LocalDateTime timeStamp" style="text;strokeColor=none;fillColor=none;align=left;verticalAlign=middle;spacingLeft=4;spacingRight=4;overflow=hidden;points=[[0,0.5],[1,0.5]];portConstraint=eastwest;rotatable=0;whiteSpace=wrap;html=1;" parent="2iAwOod4hT-4nVREHmh0-1" vertex="1">
          <mxGeometry y="300" width="274" height="30" as="geometry" />
        </mxCell>
        <mxCell id="C04bbdVRXLq1j2PE7OYp-6" value="&lt;span style=&quot;text-align: left;&quot;&gt;STATUSTRANSFERENCIA&amp;nbsp;&lt;/span&gt;" style="swimlane;fontStyle=0;childLayout=stackLayout;horizontal=1;startSize=30;horizontalStack=0;resizeParent=1;resizeParentMax=0;resizeLast=0;collapsible=1;marginBottom=0;whiteSpace=wrap;html=1;" parent="1" vertex="1">
          <mxGeometry x="553" y="235" width="180" height="120" as="geometry" />
        </mxCell>
        <mxCell id="C04bbdVRXLq1j2PE7OYp-7" value="AGUARDANDO" style="text;strokeColor=none;fillColor=none;align=left;verticalAlign=middle;spacingLeft=4;spacingRight=4;overflow=hidden;points=[[0,0.5],[1,0.5]];portConstraint=eastwest;rotatable=0;whiteSpace=wrap;html=1;" parent="C04bbdVRXLq1j2PE7OYp-6" vertex="1">
          <mxGeometry y="30" width="180" height="30" as="geometry" />
        </mxCell>
        <mxCell id="C04bbdVRXLq1j2PE7OYp-8" value="APROVADO" style="text;strokeColor=none;fillColor=none;align=left;verticalAlign=middle;spacingLeft=4;spacingRight=4;overflow=hidden;points=[[0,0.5],[1,0.5]];portConstraint=eastwest;rotatable=0;whiteSpace=wrap;html=1;" parent="C04bbdVRXLq1j2PE7OYp-6" vertex="1">
          <mxGeometry y="60" width="180" height="30" as="geometry" />
        </mxCell>
        <mxCell id="C04bbdVRXLq1j2PE7OYp-9" value="NAO_AUTORIZADO" style="text;strokeColor=none;fillColor=none;align=left;verticalAlign=middle;spacingLeft=4;spacingRight=4;overflow=hidden;points=[[0,0.5],[1,0.5]];portConstraint=eastwest;rotatable=0;whiteSpace=wrap;html=1;" parent="C04bbdVRXLq1j2PE7OYp-6" vertex="1">
          <mxGeometry y="90" width="180" height="30" as="geometry" />
        </mxCell>
        <mxCell id="C04bbdVRXLq1j2PE7OYp-10" style="edgeStyle=orthogonalEdgeStyle;rounded=0;orthogonalLoop=1;jettySize=auto;html=1;exitX=1;exitY=0.5;exitDx=0;exitDy=0;entryX=0;entryY=0;entryDx=0;entryDy=0;" parent="1" source="C04bbdVRXLq1j2PE7OYp-2" target="C04bbdVRXLq1j2PE7OYp-6" edge="1">
          <mxGeometry relative="1" as="geometry" />
        </mxCell>
        <mxCell id="u_jNYAwjXv6GoyJvlskF-1" value="&lt;div style=&quot;text-align: left;&quot;&gt;&lt;span style=&quot;background-color: initial;&quot;&gt;TIPOTRANSACAO&lt;/span&gt;&lt;/div&gt;" style="swimlane;fontStyle=0;childLayout=stackLayout;horizontal=1;startSize=30;horizontalStack=0;resizeParent=1;resizeParentMax=0;resizeLast=0;collapsible=1;marginBottom=0;whiteSpace=wrap;html=1;" parent="1" vertex="1">
          <mxGeometry x="553" y="460" width="180" height="90" as="geometry" />
        </mxCell>
        <mxCell id="u_jNYAwjXv6GoyJvlskF-2" value="SAQUE" style="text;strokeColor=none;fillColor=none;align=left;verticalAlign=middle;spacingLeft=4;spacingRight=4;overflow=hidden;points=[[0,0.5],[1,0.5]];portConstraint=eastwest;rotatable=0;whiteSpace=wrap;html=1;" parent="u_jNYAwjXv6GoyJvlskF-1" vertex="1">
          <mxGeometry y="30" width="180" height="30" as="geometry" />
        </mxCell>
        <mxCell id="u_jNYAwjXv6GoyJvlskF-3" value="DEPOSITO" style="text;strokeColor=none;fillColor=none;align=left;verticalAlign=middle;spacingLeft=4;spacingRight=4;overflow=hidden;points=[[0,0.5],[1,0.5]];portConstraint=eastwest;rotatable=0;whiteSpace=wrap;html=1;" parent="u_jNYAwjXv6GoyJvlskF-1" vertex="1">
          <mxGeometry y="60" width="180" height="30" as="geometry" />
        </mxCell>
        <mxCell id="_vR8EFIxMb1HKjCgWKo6-1" style="edgeStyle=none;shape=connector;rounded=0;orthogonalLoop=1;jettySize=auto;html=1;exitX=1;exitY=0.5;exitDx=0;exitDy=0;entryX=0;entryY=0;entryDx=0;entryDy=0;strokeColor=default;align=center;verticalAlign=middle;fontFamily=Helvetica;fontSize=11;fontColor=default;labelBackgroundColor=default;endArrow=none;" parent="1" source="u_jNYAwjXv6GoyJvlskF-5" target="u_jNYAwjXv6GoyJvlskF-1" edge="1">
          <mxGeometry relative="1" as="geometry" />
        </mxCell>
      </root>
    </mxGraphModel>
  </diagram>
  <diagram name="Cópia do Diagrama JWTSERVICE Nível 2" id="ineinhEmJ6WwjJgxOBVz">
    <mxGraphModel dx="880" dy="532" grid="0" gridSize="10" guides="1" tooltips="1" connect="1" arrows="1" fold="1" page="1" pageScale="1" pageWidth="827" pageHeight="1169" math="0" shadow="0">
      <root>
        <mxCell id="McaR32k_6cr0OG3Kj6E1-0" />
        <mxCell id="McaR32k_6cr0OG3Kj6E1-1" parent="McaR32k_6cr0OG3Kj6E1-0" />
        <mxCell id="McaR32k_6cr0OG3Kj6E1-11" value="&lt;h1 style=&quot;margin-top: 0px;&quot;&gt;Diagrama de Entidade e Relacionamento&lt;/h1&gt;" style="text;html=1;whiteSpace=wrap;overflow=hidden;rounded=0;" vertex="1" parent="McaR32k_6cr0OG3Kj6E1-1">
          <mxGeometry x="326" y="117" width="471" height="55" as="geometry" />
        </mxCell>
        <mxCell id="McaR32k_6cr0OG3Kj6E1-12" value="" style="group" vertex="1" connectable="0" parent="McaR32k_6cr0OG3Kj6E1-1">
          <mxGeometry x="326" y="18" width="151" height="104" as="geometry" />
        </mxCell>
        <mxCell id="McaR32k_6cr0OG3Kj6E1-13" value="" style="image;sketch=0;aspect=fixed;html=1;points=[];align=center;fontSize=12;image=img/lib/mscae/Storage_sync_service.svg;" vertex="1" parent="McaR32k_6cr0OG3Kj6E1-12">
          <mxGeometry x="23.5" width="81" height="81" as="geometry" />
        </mxCell>
        <mxCell id="McaR32k_6cr0OG3Kj6E1-14" value="JWT_SERVICE" style="text;html=1;align=center;verticalAlign=middle;resizable=0;points=[];autosize=1;strokeColor=none;fillColor=none;" vertex="1" parent="McaR32k_6cr0OG3Kj6E1-12">
          <mxGeometry x="13" y="78" width="102" height="26" as="geometry" />
        </mxCell>
        <mxCell id="VKUKpRCIznYZ_La7THhP-0" value="Métodos" style="swimlane;fontStyle=0;childLayout=stackLayout;horizontal=1;startSize=30;horizontalStack=0;resizeParent=1;resizeParentMax=0;resizeLast=0;collapsible=1;marginBottom=0;whiteSpace=wrap;html=1;" vertex="1" parent="McaR32k_6cr0OG3Kj6E1-1">
          <mxGeometry x="342" y="217" width="445" height="90" as="geometry" />
        </mxCell>
        <mxCell id="VKUKpRCIznYZ_La7THhP-1" value="&lt;div style=&quot;font-size: 14px; line-height: 19px; white-space: pre;&quot;&gt;&lt;font face=&quot;Helvetica&quot; style=&quot;color: rgb(0, 0, 0);&quot;&gt;&lt;span&gt;login&lt;/span&gt;(&lt;span&gt;AuthenticationDTO&lt;/span&gt; &lt;span&gt;data&lt;/span&gt;)&lt;/font&gt;&lt;/div&gt;" style="text;strokeColor=none;fillColor=none;align=left;verticalAlign=middle;spacingLeft=4;spacingRight=4;overflow=hidden;points=[[0,0.5],[1,0.5]];portConstraint=eastwest;rotatable=0;whiteSpace=wrap;html=1;" vertex="1" parent="VKUKpRCIznYZ_La7THhP-0">
          <mxGeometry y="30" width="445" height="30" as="geometry" />
        </mxCell>
        <mxCell id="VKUKpRCIznYZ_La7THhP-2" value="&lt;div style=&quot;font-size: 14px; line-height: 19px; white-space: pre;&quot;&gt;&lt;font style=&quot;color: rgb(0, 0, 0);&quot;&gt;register(RegisterDTO data)&lt;/font&gt;&lt;/div&gt;" style="text;strokeColor=none;fillColor=none;align=left;verticalAlign=middle;spacingLeft=4;spacingRight=4;overflow=hidden;points=[[0,0.5],[1,0.5]];portConstraint=eastwest;rotatable=0;whiteSpace=wrap;html=1;" vertex="1" parent="VKUKpRCIznYZ_La7THhP-0">
          <mxGeometry y="60" width="445" height="30" as="geometry" />
        </mxCell>
        <mxCell id="xqOTyVLEVFGC89_3Q6C9-0" value="" style="group" vertex="1" connectable="0" parent="McaR32k_6cr0OG3Kj6E1-1">
          <mxGeometry x="334" y="545" width="104" height="96" as="geometry" />
        </mxCell>
        <mxCell id="xqOTyVLEVFGC89_3Q6C9-1" value="" style="image;sketch=0;aspect=fixed;html=1;points=[];align=center;fontSize=12;image=img/lib/mscae/Azure_Database_for_PostgreSQL_servers.svg;" vertex="1" parent="xqOTyVLEVFGC89_3Q6C9-0">
          <mxGeometry x="16" width="56.24" height="74" as="geometry" />
        </mxCell>
        <mxCell id="xqOTyVLEVFGC89_3Q6C9-2" value="DB_BANCOFAKE" style="text;html=1;align=center;verticalAlign=middle;resizable=0;points=[];autosize=1;strokeColor=none;fillColor=none;" vertex="1" parent="xqOTyVLEVFGC89_3Q6C9-0">
          <mxGeometry x="-11" y="70" width="115" height="26" as="geometry" />
        </mxCell>
        <mxCell id="xqOTyVLEVFGC89_3Q6C9-3" style="edgeStyle=orthogonalEdgeStyle;rounded=0;orthogonalLoop=1;jettySize=auto;html=1;exitX=0;exitY=0;exitDx=0;exitDy=0;entryX=0;entryY=0.419;entryDx=0;entryDy=0;entryPerimeter=0;" edge="1" parent="McaR32k_6cr0OG3Kj6E1-1" source="VKUKpRCIznYZ_La7THhP-0" target="xqOTyVLEVFGC89_3Q6C9-1">
          <mxGeometry relative="1" as="geometry">
            <Array as="points">
              <mxPoint x="244" y="217" />
              <mxPoint x="244" y="576" />
            </Array>
          </mxGeometry>
        </mxCell>
        <mxCell id="xqOTyVLEVFGC89_3Q6C9-4" value="Request" style="text;html=1;align=center;verticalAlign=middle;resizable=0;points=[];autosize=1;strokeColor=none;fillColor=none;" vertex="1" parent="McaR32k_6cr0OG3Kj6E1-1">
          <mxGeometry x="273" y="196" width="63" height="26" as="geometry" />
        </mxCell>
        <mxCell id="xqOTyVLEVFGC89_3Q6C9-5" value="response" style="text;html=1;align=center;verticalAlign=middle;resizable=0;points=[];autosize=1;strokeColor=none;fillColor=none;" vertex="1" parent="McaR32k_6cr0OG3Kj6E1-1">
          <mxGeometry x="283" y="553" width="67" height="26" as="geometry" />
        </mxCell>
      </root>
    </mxGraphModel>
  </diagram>
  <diagram id="1loGVrZK8lKZq--o3KOb" name="Diagrama JWTSERVICE Nível 3">
    <mxGraphModel dx="880" dy="532" grid="0" gridSize="10" guides="1" tooltips="1" connect="1" arrows="1" fold="1" page="1" pageScale="1" pageWidth="827" pageHeight="1169" math="0" shadow="0">
      <root>
        <mxCell id="0" />
        <mxCell id="1" parent="0" />
        <mxCell id="x2CO5io35sGZVjlMACqO-1" value="User" style="swimlane;fontStyle=0;childLayout=stackLayout;horizontal=1;startSize=30;horizontalStack=0;resizeParent=1;resizeParentMax=0;resizeLast=0;collapsible=1;marginBottom=0;whiteSpace=wrap;html=1;" vertex="1" parent="1">
          <mxGeometry x="69" y="174" width="140" height="150" as="geometry" />
        </mxCell>
        <mxCell id="x2CO5io35sGZVjlMACqO-2" value="String id" style="text;strokeColor=none;fillColor=none;align=left;verticalAlign=middle;spacingLeft=4;spacingRight=4;overflow=hidden;points=[[0,0.5],[1,0.5]];portConstraint=eastwest;rotatable=0;whiteSpace=wrap;html=1;" vertex="1" parent="x2CO5io35sGZVjlMACqO-1">
          <mxGeometry y="30" width="140" height="30" as="geometry" />
        </mxCell>
        <mxCell id="x2CO5io35sGZVjlMACqO-3" value="String login" style="text;strokeColor=none;fillColor=none;align=left;verticalAlign=middle;spacingLeft=4;spacingRight=4;overflow=hidden;points=[[0,0.5],[1,0.5]];portConstraint=eastwest;rotatable=0;whiteSpace=wrap;html=1;" vertex="1" parent="x2CO5io35sGZVjlMACqO-1">
          <mxGeometry y="60" width="140" height="30" as="geometry" />
        </mxCell>
        <mxCell id="x2CO5io35sGZVjlMACqO-4" value="String password" style="text;strokeColor=none;fillColor=none;align=left;verticalAlign=middle;spacingLeft=4;spacingRight=4;overflow=hidden;points=[[0,0.5],[1,0.5]];portConstraint=eastwest;rotatable=0;whiteSpace=wrap;html=1;" vertex="1" parent="x2CO5io35sGZVjlMACqO-1">
          <mxGeometry y="90" width="140" height="30" as="geometry" />
        </mxCell>
        <mxCell id="x2CO5io35sGZVjlMACqO-6" value="UserRole role" style="text;strokeColor=none;fillColor=none;align=left;verticalAlign=middle;spacingLeft=4;spacingRight=4;overflow=hidden;points=[[0,0.5],[1,0.5]];portConstraint=eastwest;rotatable=0;whiteSpace=wrap;html=1;" vertex="1" parent="x2CO5io35sGZVjlMACqO-1">
          <mxGeometry y="120" width="140" height="30" as="geometry" />
        </mxCell>
        <mxCell id="x2CO5io35sGZVjlMACqO-7" value="&lt;span style=&quot;text-align: left;&quot;&gt;UserRole&amp;nbsp;&lt;/span&gt;" style="swimlane;fontStyle=0;childLayout=stackLayout;horizontal=1;startSize=30;horizontalStack=0;resizeParent=1;resizeParentMax=0;resizeLast=0;collapsible=1;marginBottom=0;whiteSpace=wrap;html=1;" vertex="1" parent="1">
          <mxGeometry x="437" y="329" width="140" height="90" as="geometry" />
        </mxCell>
        <mxCell id="x2CO5io35sGZVjlMACqO-8" value="ADMIN&lt;span style=&quot;white-space: pre;&quot;&gt;&#x9;&lt;/span&gt;" style="text;strokeColor=none;fillColor=none;align=left;verticalAlign=middle;spacingLeft=4;spacingRight=4;overflow=hidden;points=[[0,0.5],[1,0.5]];portConstraint=eastwest;rotatable=0;whiteSpace=wrap;html=1;" vertex="1" parent="x2CO5io35sGZVjlMACqO-7">
          <mxGeometry y="30" width="140" height="30" as="geometry" />
        </mxCell>
        <mxCell id="x2CO5io35sGZVjlMACqO-9" value="USER" style="text;strokeColor=none;fillColor=none;align=left;verticalAlign=middle;spacingLeft=4;spacingRight=4;overflow=hidden;points=[[0,0.5],[1,0.5]];portConstraint=eastwest;rotatable=0;whiteSpace=wrap;html=1;" vertex="1" parent="x2CO5io35sGZVjlMACqO-7">
          <mxGeometry y="60" width="140" height="30" as="geometry" />
        </mxCell>
        <mxCell id="x2CO5io35sGZVjlMACqO-12" style="edgeStyle=orthogonalEdgeStyle;rounded=0;orthogonalLoop=1;jettySize=auto;html=1;exitX=1;exitY=0.5;exitDx=0;exitDy=0;entryX=0;entryY=0;entryDx=0;entryDy=0;" edge="1" parent="1" source="x2CO5io35sGZVjlMACqO-6" target="x2CO5io35sGZVjlMACqO-7">
          <mxGeometry relative="1" as="geometry" />
        </mxCell>
        <mxCell id="co7AffZNcSti5PPl9MfK-2" value="" style="group" vertex="1" connectable="0" parent="1">
          <mxGeometry x="326" y="18" width="151" height="104" as="geometry" />
        </mxCell>
        <mxCell id="co7AffZNcSti5PPl9MfK-3" value="" style="image;sketch=0;aspect=fixed;html=1;points=[];align=center;fontSize=12;image=img/lib/mscae/Storage_sync_service.svg;" vertex="1" parent="co7AffZNcSti5PPl9MfK-2">
          <mxGeometry x="23.5" width="81" height="81" as="geometry" />
        </mxCell>
        <mxCell id="co7AffZNcSti5PPl9MfK-4" value="JWT_SERVICE" style="text;html=1;align=center;verticalAlign=middle;resizable=0;points=[];autosize=1;strokeColor=none;fillColor=none;" vertex="1" parent="co7AffZNcSti5PPl9MfK-2">
          <mxGeometry x="13" y="78" width="102" height="26" as="geometry" />
        </mxCell>
        <mxCell id="dXgN8cuP4eiyvkP1iuPB-1" value="&lt;h1 style=&quot;margin-top: 0px;&quot;&gt;Diagrama de Funcionamento Service&lt;/h1&gt;" style="text;html=1;whiteSpace=wrap;overflow=hidden;rounded=0;" vertex="1" parent="1">
          <mxGeometry x="338" y="117" width="471" height="55" as="geometry" />
        </mxCell>
      </root>
    </mxGraphModel>
  </diagram>
</mxfile>
